<svg version="1.1" id="Layer_1" xmlns="http://www.w3.org/2000/svg" xmlns:xlink="http://www.w3.org/1999/xlink" x="0px" y="0px"
	 width="100%" viewBox="0 0 1600 1132" enable-background="new 0 0 1600 1132" xml:space="preserve">
<path fill="#231F1E" opacity="1.000000" stroke="none" 
	d="
M1601.000000,2.000000 
	C1601.000000,378.960724 1601.000000,755.921448 1601.000000,1132.882202 
	C1600.872681,1132.921387 1600.745239,1132.995239 1600.617920,1132.995239 
	C1067.506836,1133.000000 534.395691,1133.000000 1.000000,1133.000000 
	C1.000000,756.300659 1.000000,379.601227 1.447632,2.450873 
	C534.930176,1.999957 1067.965088,1.999979 1601.000000,2.000000 
M1177.284424,747.697815 
	C1177.718140,741.137512 1174.547729,736.357971 1169.215332,733.241394 
	C1165.090576,730.830688 1160.520020,729.122803 1156.025269,727.426941 
	C1153.113647,726.328491 1149.981689,725.814575 1146.080688,724.816711 
	C1150.612549,722.865295 1154.271851,721.629517 1157.579956,719.769348 
	C1160.888794,717.908752 1164.142212,715.738403 1166.898438,713.148865 
	C1173.067871,707.352478 1172.689697,699.872070 1165.481445,695.535889 
	C1160.900269,692.780029 1155.461304,690.895508 1150.171387,689.976440 
	C1134.215454,687.204102 1118.210693,688.774414 1102.447266,691.629822 
	C1092.677490,693.399353 1083.137573,696.518311 1073.576050,699.310730 
	C1070.254883,700.280640 1068.539429,702.461670 1070.700684,704.804077 
	C1081.159546,701.951782 1090.807251,699.320679 1101.344360,696.447083 
	C1100.526733,704.224182 1100.024292,710.843567 1099.074341,717.398010 
	C1098.428955,721.851501 1097.156250,726.213989 1096.164062,730.617188 
	C1096.029907,731.495056 1097.824585,732.828674 1097.802490,734.131592 
	C1097.605957,745.746277 1097.088501,757.355591 1096.642212,769.612000 
	C1093.306763,769.222229 1090.307007,768.871704 1085.471558,768.306580 
	C1087.381348,770.885925 1088.237549,773.308167 1089.737305,773.811279 
	C1093.137329,774.951721 1096.928467,775.922607 1100.429321,775.588013 
	C1113.495117,774.339294 1126.640625,773.213135 1139.492310,770.694519 
	C1147.530151,769.119324 1155.185303,765.349731 1162.845703,762.164612 
	C1169.620728,759.347717 1174.162842,753.829346 1178.971436,748.516357 
	C1178.801636,752.796570 1177.877075,757.237183 1178.739746,761.298096 
	C1179.273804,763.813538 1182.238037,767.023560 1184.639893,767.561157 
	C1186.684326,768.018738 1189.614746,765.277771 1191.893921,763.599854 
	C1192.997803,762.787109 1193.507080,761.166626 1194.356567,759.797119 
	C1200.294434,770.718628 1204.666870,770.960754 1216.402588,761.252014 
	C1224.431519,774.254456 1233.278442,774.122986 1248.297607,760.488098 
	C1248.556274,761.198975 1248.745361,761.760620 1248.963257,762.310913 
	C1252.531860,771.325623 1259.869141,773.514038 1266.949097,766.906067 
	C1270.980225,763.143799 1273.712036,757.986145 1277.005615,753.439880 
	C1277.664795,752.530029 1278.218506,751.543945 1278.820923,750.592957 
	C1279.521606,754.611267 1278.910767,758.280640 1279.280518,761.848389 
	C1279.501953,763.986755 1281.255737,765.966309 1282.320923,768.017212 
	C1284.308472,766.800293 1286.831543,765.995178 1288.157837,764.269836 
	C1290.144531,761.685547 1291.290527,758.454895 1293.477539,754.155701 
	C1293.791504,756.494202 1293.920776,757.251038 1293.991333,758.013245 
	C1294.975952,768.665405 1299.720459,771.640137 1309.761230,768.082520 
	C1310.905396,767.677063 1312.567749,767.898621 1313.701172,768.437012 
	C1320.066895,771.460754 1324.951782,770.961548 1330.263306,766.357178 
	C1332.133789,764.735779 1333.845215,762.931030 1335.609131,761.229553 
	C1341.691895,771.988892 1353.706787,776.027283 1367.421997,760.941711 
	C1373.688110,770.151306 1381.150635,772.969482 1389.086304,769.123169 
	C1397.521118,765.034912 1404.347290,754.587402 1402.420532,748.855225 
	C1399.231079,753.214233 1396.359863,757.938293 1392.699951,761.941284 
	C1387.921143,767.168335 1382.758545,767.827332 1377.422607,764.551147 
	C1382.651001,761.986511 1385.778442,758.110535 1384.681885,752.211426 
	C1383.653564,746.679504 1382.351929,741.182617 1380.805786,735.774597 
	C1380.450195,734.531006 1378.709473,733.149414 1377.404907,732.904785 
	C1376.578979,732.749817 1374.971436,734.397156 1374.444092,735.565552 
	C1373.640625,737.345947 1373.913330,739.671814 1372.952881,741.311218 
	C1368.636353,748.679077 1364.666748,756.386536 1359.349976,762.987061 
	C1355.369263,767.928711 1350.079468,767.726990 1345.974609,764.571411 
	C1353.052368,759.764954 1354.147583,756.452271 1351.661499,748.119812 
	C1350.714844,744.947327 1350.293091,741.604919 1349.188721,738.497498 
	C1348.457031,736.438538 1346.937012,734.659729 1345.769897,732.755432 
	C1344.473877,734.567749 1342.482300,736.213745 1342.002319,738.221252 
	C1339.937378,746.858826 1336.048340,754.464111 1329.953735,760.842834 
	C1325.287598,765.726379 1320.751953,766.507263 1315.638794,763.761475 
	C1316.246216,762.784241 1316.960449,761.871094 1317.427002,760.845276 
	C1319.888794,755.433472 1322.816528,750.143372 1324.425537,744.482239 
	C1324.998291,742.466675 1322.913086,738.536621 1320.922729,737.339355 
	C1319.479248,736.470947 1315.677368,738.070129 1313.869751,739.648560 
	C1311.866211,741.397949 1310.195435,744.232361 1309.689819,746.847473 
	C1308.615601,752.404602 1308.390381,758.125854 1307.765259,764.291931 
	C1301.981812,766.896545 1298.153442,764.635620 1298.315796,757.556274 
	C1298.387817,754.413391 1299.388184,751.272705 1299.290771,748.152100 
	C1299.230347,746.216064 1297.900391,744.319519 1297.140381,742.405334 
	C1295.559448,743.699158 1293.436646,744.690491 1292.510132,746.349731 
	C1290.573975,749.816833 1289.345825,753.671875 1287.671875,757.295959 
	C1286.854858,759.064697 1285.690674,760.672913 1284.683594,762.353760 
	C1283.661499,760.909607 1283.540161,759.949463 1283.535400,758.988831 
	C1283.517456,755.341187 1283.807739,751.662598 1283.399170,748.061829 
	C1283.252197,746.766907 1281.644043,745.102539 1280.346558,744.666138 
	C1279.513672,744.385925 1277.725220,745.806580 1276.906372,746.878357 
	C1275.506470,748.710693 1274.762329,751.051208 1273.331421,752.851440 
	C1270.057373,756.970398 1267.019409,761.499023 1262.978516,764.725220 
	C1258.815430,768.049133 1254.208618,765.660156 1253.591064,760.342834 
	C1253.212891,757.088074 1253.943481,753.718750 1253.847046,750.410522 
	C1253.802856,748.894775 1252.966064,747.402161 1252.488647,745.899048 
	C1251.315186,747.171326 1249.561279,748.252625 1249.069092,749.749023 
	C1246.950562,756.188354 1243.161011,761.314209 1237.505249,764.867554 
	C1234.025513,767.053711 1230.133423,767.707153 1225.916138,764.769897 
	C1234.104004,760.624268 1234.456177,754.277832 1231.814453,746.852783 
	C1230.822388,744.064575 1230.797485,740.935120 1229.830078,738.134338 
	C1229.157104,736.185425 1227.628784,734.531921 1226.482422,732.746460 
	C1225.114746,734.303467 1223.205811,735.645203 1222.484253,737.459229 
	C1220.588501,742.224915 1219.836304,747.532410 1217.444702,751.988831 
	C1215.176636,756.215332 1211.984863,760.436890 1208.148315,763.203491 
	C1203.616699,766.471436 1199.637451,764.011169 1199.187012,758.386475 
	C1198.909790,754.926392 1199.476807,751.406494 1199.420410,747.917358 
	C1199.394897,746.336365 1198.775513,744.764893 1198.425659,743.189148 
	C1197.197388,744.418091 1195.474609,745.434631 1194.837769,746.917603 
	C1193.205444,750.718628 1192.405151,754.900879 1190.571411,758.581604 
	C1189.598389,760.534607 1187.167114,761.761047 1185.394043,763.315430 
	C1184.571777,761.140503 1183.004028,758.935913 1183.089111,756.797058 
	C1183.245972,752.857788 1184.487915,748.972839 1185.030273,745.031189 
	C1185.198730,743.807007 1184.568115,742.472839 1184.303345,741.189026 
	C1183.081299,741.970459 1181.618408,742.540527 1180.699341,743.587891 
	C1179.599487,744.841431 1178.964233,746.502563 1177.284424,747.697815 
M111.723610,595.599792 
	C111.881790,596.042847 112.039970,596.485962 112.028687,597.870605 
	C111.926071,599.697021 111.733871,601.523376 111.733742,603.349792 
	C111.728172,684.292664 111.735435,765.235596 111.769455,846.178467 
	C111.770432,848.489075 112.077255,850.799561 112.117332,854.027649 
	C112.018707,856.355652 111.834747,858.683655 111.833961,861.011658 
	C111.815147,917.003845 111.818138,972.995972 111.810448,1028.988159 
	C111.809464,1036.157837 111.792236,1036.160400 118.854851,1036.160034 
	C197.843826,1036.156494 276.832794,1036.155640 355.821777,1036.139526 
	C360.818817,1036.138550 365.815857,1036.016846 371.781982,1036.013062 
	C373.945862,1036.047485 376.109772,1036.111938 378.273651,1036.112183 
	C476.501862,1036.119263 574.730103,1036.124512 672.958313,1036.115112 
	C680.281677,1036.114380 687.605103,1036.003906 695.867371,1036.075684 
	C698.198792,1036.099731 700.530151,1036.144653 702.861572,1036.144653 
	C807.793823,1036.146484 912.726135,1036.144409 1017.658386,1036.141846 
	C1026.652588,1036.141602 1035.648071,1036.045044 1044.640259,1036.179077 
	C1047.750122,1036.225342 1049.100098,1035.376343 1049.093018,1031.979004 
	C1048.968628,972.352722 1048.942139,912.726196 1048.884644,852.144165 
	C1048.940674,850.482666 1049.045410,848.821228 1049.045532,847.159729 
	C1049.053711,766.310486 1049.055176,685.461182 1049.042969,604.611938 
	C1049.042603,602.119812 1048.888916,599.627625 1048.883179,596.179138 
	C1048.929443,593.015442 1049.016113,589.851746 1049.016357,586.688049 
	C1049.020630,510.734955 1049.020386,434.781830 1049.002686,358.828735 
	C1049.001343,352.834869 1048.864380,346.841003 1048.899292,339.933990 
	C1048.950806,339.103699 1049.047363,338.273438 1049.047485,337.443146 
	C1049.055664,259.170013 1049.058472,180.896896 1049.040039,102.623787 
	C1049.039673,101.359276 1048.772339,100.094841 1048.575439,98.351181 
	C1046.494385,98.351181 1044.691406,98.351257 1042.888306,98.351173 
	C947.628235,98.346573 852.368164,98.339020 757.108093,98.357536 
	C755.123474,98.357918 753.138794,98.659889 750.200562,98.640762 
	C748.208435,98.516190 746.216309,98.282387 744.224182,98.282677 
	C639.631042,98.297997 535.037964,98.333145 429.883026,97.686058 
	C427.394165,97.132141 424.905731,96.095787 422.416412,96.093819 
	C320.939606,96.013504 219.462738,96.026321 117.985863,96.028023 
	C116.652863,96.028046 115.144936,95.648438 114.034355,96.147934 
	C112.841400,96.684479 112.021622,98.050758 110.967560,99.537254 
	C110.967560,99.537254 110.841637,100.008263 110.370766,100.684151 
	C110.246452,102.666023 110.013695,104.647873 110.013451,106.629761 
	C110.003418,187.839249 110.018059,269.048737 110.021515,350.258240 
	C110.024895,429.861206 110.009407,509.464172 110.077751,589.067078 
	C110.079437,591.028992 110.968391,592.990112 111.723610,595.599792 
M1300.763672,281.499878 
	C1300.763672,298.496704 1300.763672,315.493530 1300.763672,332.490356 
	C1299.061890,331.148438 1298.365479,329.682434 1297.732178,328.189636 
	C1288.374878,306.135468 1279.052856,284.066193 1269.621216,262.043915 
	C1268.905640,260.372833 1267.478882,257.784088 1266.291382,257.732758 
	C1257.697998,257.361420 1249.080933,257.533478 1240.483398,257.533478 
	C1240.483398,310.721039 1240.483398,363.251251 1240.483398,415.647339 
	C1251.098999,415.647339 1261.336060,415.647339 1272.161987,415.647339 
	C1272.161987,390.714233 1272.161987,366.132019 1272.161987,341.549805 
	C1273.237427,342.234253 1273.618408,342.951233 1273.940796,343.693604 
	C1283.878418,366.584015 1293.783325,389.488739 1303.808228,412.340851 
	C1304.434204,413.767792 1305.956787,415.789185 1307.124756,415.832031 
	C1315.390015,416.135040 1323.671509,415.993164 1331.812988,415.993164 
	C1331.812988,362.888306 1331.812988,310.367828 1331.812988,257.782837 
	C1321.335938,257.782837 1311.247681,257.782837 1300.763672,257.782837 
	C1300.763672,265.549133 1300.763672,273.024506 1300.763672,281.499878 
M1242.871338,582.500000 
	C1242.871338,595.587219 1242.871338,608.674438 1242.871338,621.925293 
	C1253.651245,621.925293 1263.772339,621.925293 1274.423462,621.925293 
	C1274.423462,601.557007 1274.423462,581.318604 1274.423462,561.187988 
	C1284.442993,559.314392 1284.430786,559.318237 1287.188965,568.041077 
	C1292.851318,585.948914 1298.528198,603.852173 1304.217041,621.814209 
	C1315.133789,621.814209 1325.863281,621.814209 1336.915527,621.814209 
	C1336.324219,619.896851 1335.874023,618.311340 1335.348267,616.751343 
	C1328.707031,597.047302 1322.093506,577.333740 1315.361206,557.660767 
	C1314.438599,554.964661 1314.489624,553.227905 1317.118164,551.386658 
	C1323.959839,546.594421 1327.948608,539.691040 1329.881226,531.696350 
	C1332.979858,518.877136 1333.046143,505.930603 1330.149170,493.090485 
	C1326.234985,475.741943 1317.272095,466.203644 1299.758911,464.840942 
	C1281.084839,463.387848 1262.209961,464.513763 1242.871338,464.513763 
	C1242.871338,503.273468 1242.871338,542.386719 1242.871338,582.500000 
M1172.260254,584.081360 
	C1162.346802,545.410522 1152.392456,506.750031 1142.592529,468.050446 
	C1141.751099,464.728027 1140.514404,463.458282 1136.933105,463.615326 
	C1129.617432,463.936218 1122.268677,463.914032 1114.951172,463.609253 
	C1111.230225,463.454224 1109.882568,464.773956 1108.991943,468.315552 
	C1100.432617,502.356323 1091.684570,536.349670 1082.965332,570.350159 
	C1078.591064,587.407532 1074.165161,604.451721 1069.704346,621.727783 
	C1080.948486,621.727783 1091.815674,621.727783 1102.645386,621.727783 
	C1104.107300,614.686584 1105.632202,608.033020 1106.814453,601.319153 
	C1107.309570,598.506897 1108.319214,597.406616 1111.323486,597.466003 
	C1120.981934,597.657227 1130.649292,597.676086 1140.307007,597.471985 
	C1143.551025,597.403442 1144.569092,598.667419 1145.086060,601.641357 
	C1146.252075,608.350281 1147.789062,614.994690 1149.216431,621.864319 
	C1160.119141,621.864319 1170.890991,621.864319 1182.116089,621.864319 
	C1178.850830,609.317261 1175.670410,597.096619 1172.260254,584.081360 
M1409.593262,371.049164 
	C1407.487183,371.049164 1405.381104,371.049164 1403.130005,371.049164 
	C1403.130005,374.443695 1402.958008,377.257538 1403.157715,380.044769 
	C1404.548950,399.469635 1412.831421,410.483948 1429.966675,415.462036 
	C1441.415283,418.788086 1452.969604,418.828400 1464.438599,415.524719 
	C1481.787231,410.527344 1490.222412,400.872498 1491.569336,382.773102 
	C1492.306030,372.874603 1491.826782,362.799500 1490.944214,352.888794 
	C1489.885010,340.993225 1483.263916,332.516357 1472.300293,327.693115 
	C1464.538330,324.278412 1456.696777,321.036255 1448.821899,317.889038 
	C1436.961548,313.148987 1433.426880,306.509644 1436.338013,294.002045 
	C1437.775513,287.825378 1441.857666,284.686554 1448.210205,284.873108 
	C1454.468628,285.056854 1458.083740,288.449860 1458.969482,295.102081 
	C1459.311768,297.673126 1459.457153,300.270355 1459.682861,302.751953 
	C1470.259644,302.751953 1480.363525,302.751953 1490.830566,302.751953 
	C1491.047241,293.255707 1489.809082,284.331512 1485.725952,275.932037 
	C1481.568481,267.379364 1474.822388,261.742615 1465.825073,258.891907 
	C1455.263062,255.545395 1444.491333,254.987015 1433.831177,258.104767 
	C1420.484497,262.008270 1410.652710,270.401794 1407.162720,284.014496 
	C1405.056396,292.230347 1404.744141,301.069611 1404.748291,309.628204 
	C1404.756226,326.066132 1413.285767,336.615540 1428.731445,342.064575 
	C1436.249512,344.716827 1443.526733,348.069946 1450.849243,351.251984 
	C1455.489014,353.268188 1459.339111,356.410492 1459.792480,361.756409 
	C1460.281250,367.520538 1460.538086,373.407745 1459.920410,379.136047 
	C1459.156372,386.222900 1454.742920,389.383209 1447.474976,389.290070 
	C1440.317993,389.198395 1436.142334,385.751434 1435.023071,378.875153 
	C1434.626343,376.438354 1434.468750,373.962585 1434.152588,371.049774 
	C1426.145386,371.049774 1418.360229,371.049774 1409.593262,371.049164 
M1143.895142,259.541748 
	C1138.864014,258.478180 1133.877197,256.845764 1128.794067,256.448425 
	C1105.324097,254.613785 1087.861938,265.985474 1082.299927,286.341003 
	C1079.656250,296.015747 1079.985596,305.791382 1081.424805,315.587463 
	C1083.141968,327.274902 1089.412598,335.445129 1100.367188,339.983490 
	C1107.745117,343.040070 1115.087891,346.182190 1122.478516,349.207214 
	C1134.373047,354.075592 1136.777100,357.466858 1136.819092,370.215759 
	C1136.829468,373.361633 1136.689331,376.567352 1136.092773,379.643677 
	C1134.791138,386.355774 1130.622681,389.430603 1123.626343,389.296539 
	C1116.667236,389.163147 1112.425659,385.857269 1111.203369,379.375793 
	C1110.717407,376.798004 1110.621948,374.146576 1110.336182,371.409790 
	C1099.820923,371.409790 1089.607178,371.409790 1078.756714,371.409790 
	C1079.227661,376.746826 1079.332520,381.741486 1080.161499,386.612946 
	C1082.612305,401.015350 1090.597412,410.749603 1104.840210,415.077515 
	C1116.459473,418.608185 1128.136475,418.860474 1139.823364,415.800507 
	C1155.482300,411.700531 1166.052124,402.224854 1167.471191,385.585205 
	C1168.412354,374.549408 1167.952271,363.283081 1166.961182,352.223785 
	C1165.914185,340.541016 1159.099365,332.294189 1148.299683,327.606354 
	C1140.360962,324.160431 1132.347778,320.883331 1124.337280,317.605713 
	C1112.795288,312.883148 1108.867676,304.226288 1112.975830,292.385223 
	C1114.829590,287.041901 1119.000244,284.460876 1125.069458,284.900879 
	C1130.470947,285.292511 1133.918823,288.311707 1134.906494,293.819031 
	C1135.431274,296.745331 1135.596191,299.736145 1135.923218,302.694702 
	C1146.347046,302.694702 1156.594727,302.694702 1166.818481,302.694702 
	C1167.995117,281.940460 1160.283691,267.184753 1143.895142,259.541748 
M1401.524536,495.499573 
	C1401.524536,537.597778 1401.524536,579.696045 1401.524536,621.925293 
	C1426.069824,621.925293 1450.026367,621.925293 1474.146973,621.925293 
	C1474.146973,612.537903 1474.146973,603.324768 1474.146973,593.706848 
	C1460.366333,593.706848 1446.934448,593.706848 1433.304932,593.706848 
	C1433.304932,581.215210 1433.304932,569.132935 1433.304932,556.400879 
	C1445.227051,556.400879 1456.940063,556.400879 1468.561768,556.400879 
	C1468.561768,546.649231 1468.561768,537.550293 1468.561768,527.999817 
	C1456.703735,527.999817 1445.125610,527.999817 1433.320068,527.999817 
	C1433.320068,515.966858 1433.320068,504.392151 1433.320068,492.152161 
	C1447.035400,492.152161 1460.571289,492.152161 1474.222534,492.152161 
	C1474.222534,482.383392 1474.222534,473.281555 1474.222534,463.947937 
	C1450.008667,463.947937 1426.076172,463.947937 1401.524536,463.947937 
	C1401.524536,474.268219 1401.524536,484.383881 1401.524536,495.499573 
M1250.403687,733.252014 
	C1249.954956,735.277771 1249.349854,737.295227 1249.240601,739.339111 
	C1249.225708,739.618103 1252.295288,740.731201 1252.870728,740.231262 
	C1254.020630,739.232239 1255.266113,737.138977 1254.919434,735.950562 
	C1254.550415,734.685852 1252.384644,733.945312 1250.403687,733.252014 
z"/>
<path fill="#7D7978" opacity="1.000000" stroke="none" 
	d="
M1601.000000,1.500000 
	C1067.965088,1.999979 534.930176,1.999957 1.447632,1.999968 
	C1.166667,1.666667 1.315919,1.056198 1.502793,1.044456 
	C2.830883,0.961004 4.166667,1.000000 5.500000,1.000000 
	C537.333313,1.000000 1069.166626,1.000000 1601.000000,1.500000 
z"/>
<path fill="#0A957F" opacity="1.000000" stroke="none" 
	d="
M1048.894409,853.099731 
	C1048.942139,912.726196 1048.968628,972.352722 1049.093018,1031.979004 
	C1049.100098,1035.376343 1047.750122,1036.225342 1044.640259,1036.179077 
	C1035.648071,1036.045044 1026.652588,1036.141602 1017.658386,1036.141846 
	C912.726135,1036.144409 807.793823,1036.146484 702.861572,1036.144653 
	C700.530151,1036.144653 698.198792,1036.099731 695.413818,1035.547119 
	C694.967834,1014.092407 694.975464,993.166077 695.446777,972.143311 
	C697.076233,972.018677 698.242126,971.966125 699.408020,971.966064 
	C792.573303,971.959717 885.738525,971.957397 978.903809,971.954224 
	C980.403687,971.954163 981.908752,971.865295 983.402405,971.959473 
	C986.260803,972.139771 987.270691,970.756775 987.120911,968.044373 
	C987.001831,965.884705 987.111328,963.712585 987.115051,961.545959 
	C987.177490,925.381653 987.239258,889.217407 987.750854,853.053772 
	C1008.431885,853.069519 1028.663086,853.084656 1048.894409,853.099731 
z"/>
<path fill="#F48220" opacity="1.000000" stroke="none" 
	d="
M751.154175,98.821167 
	C753.138794,98.659889 755.123474,98.357918 757.108093,98.357536 
	C852.368164,98.339020 947.628235,98.346573 1042.888306,98.351173 
	C1044.691406,98.351257 1046.494385,98.351181 1048.575439,98.351181 
	C1048.772339,100.094841 1049.039673,101.359276 1049.040039,102.623787 
	C1049.058472,180.896896 1049.055664,259.170013 1049.047485,337.443146 
	C1049.047363,338.273438 1048.950806,339.103699 1048.394043,340.392242 
	C1045.901001,340.867462 1043.913330,340.888397 1041.925659,340.900726 
	C1024.541138,341.008545 1007.156677,341.114838 989.420776,341.073914 
	C988.432922,338.912689 987.244385,336.900146 987.240784,334.885468 
	C987.141541,279.247620 987.162720,223.609589 987.164001,167.971573 
	C987.164062,165.717514 987.164001,163.463470 987.164001,160.740082 
	C984.183716,160.740082 982.045227,160.739822 979.906738,160.740128 
	C908.776733,160.750153 837.646729,160.765945 766.516724,160.758545 
	C761.356445,160.758011 756.196167,160.589249 751.050171,160.061600 
	C751.094360,139.356705 751.124268,119.088936 751.154175,98.821167 
z"/>
<path fill="#D61B67" opacity="1.000000" stroke="none" 
	d="
M370.812897,1035.951416 
	C365.815857,1036.016846 360.818817,1036.138550 355.821777,1036.139526 
	C276.832794,1036.155640 197.843826,1036.156494 118.854851,1036.160034 
	C111.792236,1036.160400 111.809464,1036.157837 111.810448,1028.988159 
	C111.818138,972.995972 111.815147,917.003845 111.833961,861.011658 
	C111.834747,858.683655 112.018707,856.355652 112.623810,853.536743 
	C132.685532,853.049377 152.240768,853.052917 171.871201,853.514771 
	C172.021439,856.466064 172.161041,858.959167 172.161804,861.452209 
	C172.172241,895.733826 172.162628,930.015442 172.160309,964.297058 
	C172.159805,971.765076 172.301407,971.930176 179.628738,971.930847 
	C237.541443,971.936096 295.454163,971.921875 353.366852,971.943665 
	C359.186493,971.945862 365.006042,972.147278 370.825500,972.708740 
	C370.821198,994.091248 370.817047,1015.021301 370.812897,1035.951416 
z"/>
<path fill="#1F4CA1" opacity="1.000000" stroke="none" 
	d="
M371.297424,1035.982178 
	C370.817047,1015.021301 370.821198,994.091248 371.305084,972.634033 
	C372.948456,972.057190 374.112122,971.964294 375.275757,971.964233 
	C479.851715,971.956909 584.427673,971.955139 689.003662,971.967834 
	C690.996826,971.968079 692.989990,972.145264 694.983154,972.239868 
	C694.975464,993.166077 694.967834,1014.092407 694.944336,1035.481445 
	C687.605103,1036.003906 680.281677,1036.114380 672.958313,1036.115112 
	C574.730103,1036.124512 476.501862,1036.119263 378.273651,1036.112183 
	C376.109772,1036.111938 373.945862,1036.047485 371.297424,1035.982178 
z"/>
<path fill="#04ABEA" opacity="1.000000" stroke="none" 
	d="
M750.677368,98.730965 
	C751.124268,119.088936 751.094360,139.356705 750.578125,160.077759 
	C747.929016,160.598999 745.766174,160.726120 743.603333,160.726456 
	C641.171631,160.742630 538.739868,160.751694 436.308167,160.725311 
	C434.337891,160.724808 432.367706,160.291779 430.365784,159.672592 
	C430.240204,139.151550 430.146332,119.018456 430.211029,98.801277 
	C430.369598,98.717186 430.444855,98.366203 430.444855,98.366203 
	C535.037964,98.333145 639.631042,98.297997 744.224182,98.282677 
	C746.216309,98.282387 748.208435,98.516190 750.677368,98.730965 
z"/>
<path fill="#EB1A24" opacity="1.000000" stroke="none" 
	d="
M1048.889526,852.621948 
	C1028.663086,853.084656 1008.431885,853.069519 987.763306,852.577271 
	C987.266663,850.936340 987.155518,849.772583 987.155334,848.608826 
	C987.143433,766.513367 987.135254,684.417969 987.170532,602.322510 
	C987.171265,600.533997 987.677979,598.745789 988.419312,596.994263 
	C1008.862244,597.065979 1028.834473,597.100769 1048.806763,597.135498 
	C1048.888916,599.627625 1049.042603,602.119812 1049.042969,604.611938 
	C1049.055176,685.461182 1049.053711,766.310486 1049.045532,847.159729 
	C1049.045410,848.821228 1048.940674,850.482666 1048.889526,852.621948 
z"/>
<path fill="#322F8F" opacity="1.000000" stroke="none" 
	d="
M1048.844971,596.657349 
	C1028.834473,597.100769 1008.862244,597.065979 988.375610,596.583618 
	C987.593384,594.339294 987.092224,592.542725 987.091309,590.745911 
	C987.050903,509.537903 987.035095,428.329895 987.166260,347.122101 
	C987.169434,345.153870 988.865662,343.188354 989.772217,341.221588 
	C1007.156677,341.114838 1024.541138,341.008545 1041.925659,340.900726 
	C1043.913330,340.888397 1045.901001,340.867462 1048.339600,340.848816 
	C1048.864380,346.841003 1049.001343,352.834869 1049.002686,358.828735 
	C1049.020386,434.781830 1049.020630,510.734955 1049.016357,586.688049 
	C1049.016113,589.851746 1048.929443,593.015442 1048.844971,596.657349 
z"/>
<path fill="#AACC36" opacity="1.000000" stroke="none" 
	d="
M110.841637,100.008263 
	C110.841637,100.008263 110.967560,99.537254 111.368141,99.188293 
	C112.515274,98.817688 113.261818,98.796043 113.851715,99.181816 
	C113.443039,101.217957 112.971375,102.846573 112.970551,104.475426 
	C112.931618,181.304214 112.956245,258.133057 112.864937,334.961731 
	C112.860291,338.873413 114.053505,340.161407 118.021049,340.112579 
	C133.351028,339.923767 148.684906,340.054596 164.017334,340.056976 
	C171.070114,340.058075 171.081894,340.048279 171.082047,332.963715 
	C171.083313,278.300262 171.068542,223.636810 171.117188,168.973404 
	C171.119186,166.729126 171.702591,164.485382 172.115417,162.676346 
	C172.191315,222.917435 172.153198,282.723572 172.145813,342.529694 
	C172.135605,425.162567 172.146454,507.795471 172.165115,590.428345 
	C172.165527,592.249573 172.368500,594.070801 172.305054,596.156921 
	C172.016769,596.597229 171.900375,596.772644 171.329010,596.960571 
	C151.315414,596.958374 131.756775,596.943665 112.198143,596.929016 
	C112.039970,596.485962 111.881790,596.042847 111.724640,594.832520 
	C111.764793,591.901367 111.838638,589.737427 111.838112,587.573486 
	C111.800156,431.991943 111.756195,276.410431 111.713303,120.828896 
	C111.711884,115.665001 111.789886,110.499512 111.677719,105.338097 
	C111.638992,103.556267 111.133759,101.784584 110.841637,100.008263 
z"/>
<path fill="#8992C7" opacity="1.000000" stroke="none" 
	d="
M112.113419,597.399780 
	C131.756775,596.943665 151.315414,596.958374 171.425201,597.428223 
	C172.058563,599.543579 172.212357,601.203674 172.212692,602.863831 
	C172.228561,684.782166 172.233566,766.700562 172.217117,848.618896 
	C172.216827,850.098083 171.942490,851.577271 171.796021,853.056458 
	C152.240768,853.052917 132.685532,853.049377 112.685867,853.078003 
	C112.077255,850.799561 111.770432,848.489075 111.769455,846.178467 
	C111.735435,765.235596 111.728172,684.292664 111.733742,603.349792 
	C111.733871,601.523376 111.926071,599.697021 112.113419,597.399780 
z"/>
<path fill="#FDFDFD" opacity="1.000000" stroke="none" 
	d="
M1300.763672,280.999878 
	C1300.763672,273.024506 1300.763672,265.549133 1300.763672,257.782837 
	C1311.247681,257.782837 1321.335938,257.782837 1331.812988,257.782837 
	C1331.812988,310.367828 1331.812988,362.888306 1331.812988,415.993164 
	C1323.671509,415.993164 1315.390015,416.135040 1307.124756,415.832031 
	C1305.956787,415.789185 1304.434204,413.767792 1303.808228,412.340851 
	C1293.783325,389.488739 1283.878418,366.584015 1273.940796,343.693604 
	C1273.618408,342.951233 1273.237427,342.234253 1272.161987,341.549805 
	C1272.161987,366.132019 1272.161987,390.714233 1272.161987,415.647339 
	C1261.336060,415.647339 1251.098999,415.647339 1240.483398,415.647339 
	C1240.483398,363.251251 1240.483398,310.721039 1240.483398,257.533478 
	C1249.080933,257.533478 1257.697998,257.361420 1266.291382,257.732758 
	C1267.478882,257.784088 1268.905640,260.372833 1269.621216,262.043915 
	C1279.052856,284.066193 1288.374878,306.135468 1297.732178,328.189636 
	C1298.365479,329.682434 1299.061890,331.148438 1300.763672,332.490356 
	C1300.763672,315.493530 1300.763672,298.496704 1300.763672,280.999878 
z"/>
<path fill="#FDFDFD" opacity="1.000000" stroke="none" 
	d="
M1242.871338,582.000000 
	C1242.871338,542.386719 1242.871338,503.273468 1242.871338,464.513763 
	C1262.209961,464.513763 1281.084839,463.387848 1299.758911,464.840942 
	C1317.272095,466.203644 1326.234985,475.741943 1330.149170,493.090485 
	C1333.046143,505.930603 1332.979858,518.877136 1329.881226,531.696350 
	C1327.948608,539.691040 1323.959839,546.594421 1317.118164,551.386658 
	C1314.489624,553.227905 1314.438599,554.964661 1315.361206,557.660767 
	C1322.093506,577.333740 1328.707031,597.047302 1335.348267,616.751343 
	C1335.874023,618.311340 1336.324219,619.896851 1336.915527,621.814209 
	C1325.863281,621.814209 1315.133789,621.814209 1304.217041,621.814209 
	C1298.528198,603.852173 1292.851318,585.948914 1287.188965,568.041077 
	C1284.430786,559.318237 1284.442993,559.314392 1274.423462,561.187988 
	C1274.423462,581.318604 1274.423462,601.557007 1274.423462,621.925293 
	C1263.772339,621.925293 1253.651245,621.925293 1242.871338,621.925293 
	C1242.871338,608.674438 1242.871338,595.587219 1242.871338,582.000000 
M1299.782715,521.970520 
	C1299.867798,516.011902 1300.301270,510.031494 1299.930420,504.101379 
	C1299.620239,499.138367 1297.801147,494.100586 1292.281006,493.080963 
	C1286.561035,492.024414 1280.594849,492.300110 1274.634521,491.987762 
	C1274.634521,505.884705 1274.634521,518.769409 1274.634521,532.066345 
	C1278.854858,532.066345 1282.807983,532.095276 1286.760620,532.060120 
	C1294.280518,531.993286 1296.901489,530.063171 1299.782715,521.970520 
z"/>
<path fill="#FCFCFC" opacity="1.000000" stroke="none" 
	d="
M1172.375244,584.478638 
	C1175.670410,597.096619 1178.850830,609.317261 1182.116089,621.864319 
	C1170.890991,621.864319 1160.119141,621.864319 1149.216431,621.864319 
	C1147.789062,614.994690 1146.252075,608.350281 1145.086060,601.641357 
	C1144.569092,598.667419 1143.551025,597.403442 1140.307007,597.471985 
	C1130.649292,597.676086 1120.981934,597.657227 1111.323486,597.466003 
	C1108.319214,597.406616 1107.309570,598.506897 1106.814453,601.319153 
	C1105.632202,608.033020 1104.107300,614.686584 1102.645386,621.727783 
	C1091.815674,621.727783 1080.948486,621.727783 1069.704346,621.727783 
	C1074.165161,604.451721 1078.591064,587.407532 1082.965332,570.350159 
	C1091.684570,536.349670 1100.432617,502.356323 1108.991943,468.315552 
	C1109.882568,464.773956 1111.230225,463.454224 1114.951172,463.609253 
	C1122.268677,463.914032 1129.617432,463.936218 1136.933105,463.615326 
	C1140.514404,463.458282 1141.751099,464.728027 1142.592529,468.050446 
	C1152.392456,506.750031 1162.346802,545.410522 1172.375244,584.478638 
M1128.859253,524.532410 
	C1128.043335,520.615112 1127.227417,516.697876 1126.411499,512.780579 
	C1126.032104,512.819214 1125.652710,512.857788 1125.273315,512.896423 
	C1121.438110,531.446167 1117.603027,549.995911 1113.750488,568.629822 
	C1122.224976,568.629822 1129.935303,568.629822 1138.079346,568.629822 
	C1135.002930,553.908752 1132.020264,539.635986 1128.859253,524.532410 
z"/>
<path fill="#FCFBFB" opacity="1.000000" stroke="none" 
	d="
M1410.084229,371.049469 
	C1418.360229,371.049774 1426.145386,371.049774 1434.152588,371.049774 
	C1434.468750,373.962585 1434.626343,376.438354 1435.023071,378.875153 
	C1436.142334,385.751434 1440.317993,389.198395 1447.474976,389.290070 
	C1454.742920,389.383209 1459.156372,386.222900 1459.920410,379.136047 
	C1460.538086,373.407745 1460.281250,367.520538 1459.792480,361.756409 
	C1459.339111,356.410492 1455.489014,353.268188 1450.849243,351.251984 
	C1443.526733,348.069946 1436.249512,344.716827 1428.731445,342.064575 
	C1413.285767,336.615540 1404.756226,326.066132 1404.748291,309.628204 
	C1404.744141,301.069611 1405.056396,292.230347 1407.162720,284.014496 
	C1410.652710,270.401794 1420.484497,262.008270 1433.831177,258.104767 
	C1444.491333,254.987015 1455.263062,255.545395 1465.825073,258.891907 
	C1474.822388,261.742615 1481.568481,267.379364 1485.725952,275.932037 
	C1489.809082,284.331512 1491.047241,293.255707 1490.830566,302.751953 
	C1480.363525,302.751953 1470.259644,302.751953 1459.682861,302.751953 
	C1459.457153,300.270355 1459.311768,297.673126 1458.969482,295.102081 
	C1458.083740,288.449860 1454.468628,285.056854 1448.210205,284.873108 
	C1441.857666,284.686554 1437.775513,287.825378 1436.338013,294.002045 
	C1433.426880,306.509644 1436.961548,313.148987 1448.821899,317.889038 
	C1456.696777,321.036255 1464.538330,324.278412 1472.300293,327.693115 
	C1483.263916,332.516357 1489.885010,340.993225 1490.944214,352.888794 
	C1491.826782,362.799500 1492.306030,372.874603 1491.569336,382.773102 
	C1490.222412,400.872498 1481.787231,410.527344 1464.438599,415.524719 
	C1452.969604,418.828400 1441.415283,418.788086 1429.966675,415.462036 
	C1412.831421,410.483948 1404.548950,399.469635 1403.157715,380.044769 
	C1402.958008,377.257538 1403.130005,374.443695 1403.130005,371.049164 
	C1405.381104,371.049164 1407.487183,371.049164 1410.084229,371.049469 
z"/>
<path fill="#FCFCFC" opacity="1.000000" stroke="none" 
	d="
M1144.249878,259.690155 
	C1160.283691,267.184753 1167.995117,281.940460 1166.818481,302.694702 
	C1156.594727,302.694702 1146.347046,302.694702 1135.923218,302.694702 
	C1135.596191,299.736145 1135.431274,296.745331 1134.906494,293.819031 
	C1133.918823,288.311707 1130.470947,285.292511 1125.069458,284.900879 
	C1119.000244,284.460876 1114.829590,287.041901 1112.975830,292.385223 
	C1108.867676,304.226288 1112.795288,312.883148 1124.337280,317.605713 
	C1132.347778,320.883331 1140.360962,324.160431 1148.299683,327.606354 
	C1159.099365,332.294189 1165.914185,340.541016 1166.961182,352.223785 
	C1167.952271,363.283081 1168.412354,374.549408 1167.471191,385.585205 
	C1166.052124,402.224854 1155.482300,411.700531 1139.823364,415.800507 
	C1128.136475,418.860474 1116.459473,418.608185 1104.840210,415.077515 
	C1090.597412,410.749603 1082.612305,401.015350 1080.161499,386.612946 
	C1079.332520,381.741486 1079.227661,376.746826 1078.756714,371.409790 
	C1089.607178,371.409790 1099.820923,371.409790 1110.336182,371.409790 
	C1110.621948,374.146576 1110.717407,376.798004 1111.203369,379.375793 
	C1112.425659,385.857269 1116.667236,389.163147 1123.626343,389.296539 
	C1130.622681,389.430603 1134.791138,386.355774 1136.092773,379.643677 
	C1136.689331,376.567352 1136.829468,373.361633 1136.819092,370.215759 
	C1136.777100,357.466858 1134.373047,354.075592 1122.478516,349.207214 
	C1115.087891,346.182190 1107.745117,343.040070 1100.367188,339.983490 
	C1089.412598,335.445129 1083.141968,327.274902 1081.424805,315.587463 
	C1079.985596,305.791382 1079.656250,296.015747 1082.299927,286.341003 
	C1087.861938,265.985474 1105.324097,254.613785 1128.794067,256.448425 
	C1133.877197,256.845764 1138.864014,258.478180 1144.249878,259.690155 
z"/>
<path fill="#FEFDFD" opacity="1.000000" stroke="none" 
	d="
M1401.524536,494.999573 
	C1401.524536,484.383881 1401.524536,474.268219 1401.524536,463.947937 
	C1426.076172,463.947937 1450.008667,463.947937 1474.222534,463.947937 
	C1474.222534,473.281555 1474.222534,482.383392 1474.222534,492.152161 
	C1460.571289,492.152161 1447.035400,492.152161 1433.320068,492.152161 
	C1433.320068,504.392151 1433.320068,515.966858 1433.320068,527.999817 
	C1445.125610,527.999817 1456.703735,527.999817 1468.561768,527.999817 
	C1468.561768,537.550293 1468.561768,546.649231 1468.561768,556.400879 
	C1456.940063,556.400879 1445.227051,556.400879 1433.304932,556.400879 
	C1433.304932,569.132935 1433.304932,581.215210 1433.304932,593.706848 
	C1446.934448,593.706848 1460.366333,593.706848 1474.146973,593.706848 
	C1474.146973,603.324768 1474.146973,612.537903 1474.146973,621.925293 
	C1450.026367,621.925293 1426.069824,621.925293 1401.524536,621.925293 
	C1401.524536,579.696045 1401.524536,537.597778 1401.524536,494.999573 
z"/>
<path fill="#EBEAE9" opacity="1.000000" stroke="none" 
	d="
M1178.127808,747.987183 
	C1178.964233,746.502563 1179.599487,744.841431 1180.699341,743.587891 
	C1181.618408,742.540527 1183.081299,741.970459 1184.303345,741.189087 
	C1184.568115,742.472839 1185.198730,743.807007 1185.030273,745.031189 
	C1184.487915,748.972839 1183.245972,752.857788 1183.089111,756.797058 
	C1183.004028,758.935913 1184.571777,761.140503 1185.394043,763.315430 
	C1187.167114,761.761047 1189.598389,760.534607 1190.571411,758.581604 
	C1192.405151,754.900879 1193.205444,750.718628 1194.837769,746.917603 
	C1195.474609,745.434631 1197.197388,744.418091 1198.425659,743.189148 
	C1198.775513,744.764893 1199.394897,746.336365 1199.420410,747.917358 
	C1199.476807,751.406494 1198.909790,754.926392 1199.187012,758.386475 
	C1199.637451,764.011169 1203.616699,766.471436 1208.148315,763.203491 
	C1211.984863,760.436890 1215.176636,756.215332 1217.444702,751.988831 
	C1219.836304,747.532410 1220.588501,742.224915 1222.484253,737.459229 
	C1223.205811,735.645203 1225.114746,734.303467 1226.482422,732.746460 
	C1227.628784,734.531921 1229.157104,736.185425 1229.830078,738.134338 
	C1230.797485,740.935120 1230.822388,744.064575 1231.814453,746.852783 
	C1234.456177,754.277832 1234.104004,760.624268 1225.916138,764.769897 
	C1230.133423,767.707153 1234.025513,767.053711 1237.505249,764.867554 
	C1243.161011,761.314209 1246.950562,756.188354 1249.069092,749.749023 
	C1249.561279,748.252625 1251.315186,747.171326 1252.488647,745.899048 
	C1252.966064,747.402161 1253.802856,748.894775 1253.847046,750.410522 
	C1253.943481,753.718750 1253.212891,757.088074 1253.591064,760.342834 
	C1254.208618,765.660156 1258.815430,768.049133 1262.978516,764.725220 
	C1267.019409,761.499023 1270.057373,756.970398 1273.331421,752.851440 
	C1274.762329,751.051208 1275.506470,748.710693 1276.906372,746.878357 
	C1277.725220,745.806580 1279.513672,744.385925 1280.346558,744.666138 
	C1281.644043,745.102539 1283.252197,746.766907 1283.399170,748.061829 
	C1283.807739,751.662598 1283.517456,755.341187 1283.535400,758.988831 
	C1283.540161,759.949463 1283.661499,760.909607 1284.683594,762.353760 
	C1285.690674,760.672913 1286.854858,759.064697 1287.671875,757.295959 
	C1289.345825,753.671875 1290.573975,749.816833 1292.510132,746.349731 
	C1293.436646,744.690491 1295.559448,743.699158 1297.140381,742.405273 
	C1297.900391,744.319519 1299.230347,746.216064 1299.290771,748.152100 
	C1299.388184,751.272705 1298.387817,754.413391 1298.315796,757.556274 
	C1298.153442,764.635620 1301.981812,766.896545 1307.765259,764.291931 
	C1308.390381,758.125854 1308.615601,752.404602 1309.689819,746.847473 
	C1310.195435,744.232361 1311.866211,741.397949 1313.869751,739.648560 
	C1315.677368,738.070129 1319.479248,736.470947 1320.922729,737.339355 
	C1322.913086,738.536621 1324.998291,742.466675 1324.425537,744.482239 
	C1322.816528,750.143372 1319.888794,755.433472 1317.427002,760.845276 
	C1316.960449,761.871094 1316.246216,762.784241 1315.638794,763.761475 
	C1320.751953,766.507263 1325.287598,765.726379 1329.953735,760.842834 
	C1336.048340,754.464111 1339.937378,746.858826 1342.002319,738.221252 
	C1342.482300,736.213745 1344.473877,734.567749 1345.769897,732.755493 
	C1346.937012,734.659729 1348.457031,736.438538 1349.188721,738.497498 
	C1350.293091,741.604919 1350.714844,744.947327 1351.661499,748.119812 
	C1354.147583,756.452271 1353.052368,759.764954 1345.974609,764.571411 
	C1350.079468,767.726990 1355.369263,767.928711 1359.349976,762.987061 
	C1364.666748,756.386536 1368.636353,748.679077 1372.952881,741.311218 
	C1373.913330,739.671814 1373.640625,737.345947 1374.444092,735.565552 
	C1374.971436,734.397156 1376.578979,732.749817 1377.404907,732.904785 
	C1378.709473,733.149414 1380.450195,734.531006 1380.805786,735.774597 
	C1382.351929,741.182617 1383.653564,746.679504 1384.681885,752.211426 
	C1385.778442,758.110535 1382.651001,761.986511 1377.422607,764.551147 
	C1382.758545,767.827332 1387.921143,767.168335 1392.699951,761.941284 
	C1396.359863,757.938293 1399.231079,753.214233 1402.420532,748.855225 
	C1404.347290,754.587402 1397.521118,765.034912 1389.086304,769.123169 
	C1381.150635,772.969482 1373.688110,770.151306 1367.421997,760.941711 
	C1353.706787,776.027283 1341.691895,771.988892 1335.609131,761.229553 
	C1333.845215,762.931030 1332.133789,764.735779 1330.263306,766.357178 
	C1324.951782,770.961548 1320.066895,771.460754 1313.701172,768.437012 
	C1312.567749,767.898621 1310.905396,767.677063 1309.761230,768.082520 
	C1299.720459,771.640137 1294.975952,768.665405 1293.991333,758.013245 
	C1293.920776,757.251038 1293.791504,756.494202 1293.477539,754.155701 
	C1291.290527,758.454895 1290.144531,761.685547 1288.157837,764.269836 
	C1286.831543,765.995178 1284.308472,766.800293 1282.320923,768.017212 
	C1281.255737,765.966309 1279.501953,763.986755 1279.280518,761.848389 
	C1278.910767,758.280640 1279.521606,754.611267 1278.820923,750.592957 
	C1278.218506,751.543945 1277.664795,752.530029 1277.005615,753.439880 
	C1273.712036,757.986145 1270.980225,763.143799 1266.949097,766.906067 
	C1259.869141,773.514038 1252.531860,771.325623 1248.963257,762.310913 
	C1248.745361,761.760620 1248.556274,761.198975 1248.297607,760.488098 
	C1233.278442,774.122986 1224.431519,774.254456 1216.402588,761.252014 
	C1204.666870,770.960754 1200.294434,770.718628 1194.356567,759.797119 
	C1193.507080,761.166626 1192.997803,762.787109 1191.893921,763.599854 
	C1189.614746,765.277771 1186.684326,768.018738 1184.639893,767.561157 
	C1182.238037,767.023560 1179.273804,763.813538 1178.739746,761.298096 
	C1177.877075,757.237183 1178.801636,752.796570 1178.576782,748.242432 
	C1178.182129,747.968445 1178.127808,747.987183 1178.127808,747.987183 
M1342.132324,748.625061 
	C1341.307495,750.239441 1339.995728,751.792297 1339.781982,753.483887 
	C1339.520264,755.555725 1339.977417,757.801147 1340.563232,759.845520 
	C1340.732300,760.435669 1342.843994,761.186646 1343.323364,760.839478 
	C1344.940063,759.668579 1347.033569,758.248535 1347.479370,756.541199 
	C1348.734253,751.734192 1347.802246,747.071228 1344.396851,742.661072 
	C1343.671631,744.633057 1343.064941,746.282776 1342.132324,748.625061 
M1379.919434,752.553772 
	C1379.046265,749.318298 1378.173096,746.082764 1377.061279,741.963440 
	C1374.757935,746.678040 1372.433350,750.063660 1371.541504,753.792053 
	C1371.031494,755.924255 1372.853027,758.614197 1373.624878,761.052917 
	C1375.523315,759.799011 1377.638062,758.764038 1379.225586,757.195557 
	C1379.977417,756.452698 1379.721069,754.689514 1379.919434,752.553772 
M1220.787354,753.435059 
	C1219.198364,756.523987 1219.321899,759.968811 1222.703613,760.867126 
	C1226.046875,761.755249 1227.996826,758.792725 1228.359863,755.394409 
	C1228.847290,750.831482 1228.163574,746.580383 1224.759033,742.650085 
	C1223.419556,746.294800 1222.245605,749.489258 1220.787354,753.435059 
M1318.166260,751.484497 
	C1318.950439,748.210754 1319.734497,744.937073 1320.518555,741.663330 
	C1314.419312,744.594666 1311.849487,752.579529 1313.703125,759.931213 
	C1315.320923,756.995178 1316.634644,754.610840 1318.166260,751.484497 
z"/>
<path fill="#F0EFEE" opacity="1.000000" stroke="none" 
	d="
M1178.199463,747.945618 
	C1174.162842,753.829346 1169.620728,759.347717 1162.845703,762.164612 
	C1155.185303,765.349731 1147.530151,769.119324 1139.492310,770.694519 
	C1126.640625,773.213135 1113.495117,774.339294 1100.429321,775.588013 
	C1096.928467,775.922607 1093.137329,774.951721 1089.737305,773.811279 
	C1088.237549,773.308167 1087.381348,770.885925 1085.471558,768.306580 
	C1090.307007,768.871704 1093.306763,769.222229 1096.642212,769.612000 
	C1097.088501,757.355591 1097.605957,745.746277 1097.802490,734.131592 
	C1097.824585,732.828674 1096.029907,731.495056 1096.164062,730.617188 
	C1097.156250,726.213989 1098.428955,721.851501 1099.074341,717.398010 
	C1100.024292,710.843567 1100.526733,704.224182 1101.344360,696.447083 
	C1090.807251,699.320679 1081.159546,701.951782 1070.700684,704.804077 
	C1068.539429,702.461670 1070.254883,700.280640 1073.576050,699.310730 
	C1083.137573,696.518311 1092.677490,693.399353 1102.447266,691.629822 
	C1118.210693,688.774414 1134.215454,687.204102 1150.171387,689.976440 
	C1155.461304,690.895508 1160.900269,692.780029 1165.481445,695.535889 
	C1172.689697,699.872070 1173.067871,707.352478 1166.898438,713.148865 
	C1164.142212,715.738403 1160.888794,717.908752 1157.579956,719.769348 
	C1154.271851,721.629517 1150.612549,722.865295 1146.080688,724.816711 
	C1149.981689,725.814575 1153.113647,726.328491 1156.025269,727.426941 
	C1160.520020,729.122803 1165.090576,730.830688 1169.215332,733.241394 
	C1174.547729,736.357971 1177.718140,741.137512 1177.706055,747.842529 
	C1178.127808,747.987183 1178.182129,747.968445 1178.199463,747.945618 
M1114.860718,731.274231 
	C1111.273193,731.594055 1107.685669,731.913879 1103.581665,732.279724 
	C1103.581665,744.804565 1103.581665,756.991943 1103.581665,769.470093 
	C1122.964722,769.450134 1141.259521,766.548889 1158.330444,758.364624 
	C1162.607788,756.313904 1166.612183,752.667480 1169.399658,748.789551 
	C1173.077637,743.673035 1171.453979,738.906006 1165.895508,735.834839 
	C1162.874023,734.165405 1159.513550,732.966797 1156.171021,732.045776 
	C1142.792480,728.359192 1129.299683,727.773499 1114.860718,731.274231 
M1165.956787,706.347778 
	C1165.203369,700.285095 1160.042603,699.120239 1155.641113,697.626587 
	C1141.044922,692.673218 1126.104248,694.221802 1111.210083,695.960632 
	C1110.437988,696.050842 1109.243164,696.864136 1109.119385,697.508850 
	C1107.410400,706.400391 1105.855225,715.321533 1104.342163,723.787598 
	C1112.467163,723.787598 1119.578979,723.949646 1126.680786,723.752808 
	C1140.063843,723.381836 1151.713257,717.898621 1162.755127,710.906738 
	C1164.063354,710.078430 1164.824707,708.386353 1165.956787,706.347778 
z"/>
<path fill="#3B2F05" opacity="1.000000" stroke="none" 
	d="
M110.606201,100.346207 
	C111.133759,101.784584 111.638992,103.556267 111.677719,105.338097 
	C111.789886,110.499512 111.711884,115.665001 111.713303,120.828896 
	C111.756195,276.410431 111.800156,431.991943 111.838112,587.573486 
	C111.838638,589.737427 111.764793,591.901367 111.584595,594.508423 
	C110.968391,592.990112 110.079437,591.028992 110.077751,589.067078 
	C110.009407,509.464172 110.024895,429.861206 110.021515,350.258240 
	C110.018059,269.048737 110.003418,187.839249 110.013451,106.629761 
	C110.013695,104.647873 110.246452,102.666023 110.606201,100.346207 
z"/>
<path fill="#3B2F05" opacity="1.000000" stroke="none" 
	d="
M114.008369,98.774399 
	C113.261818,98.796043 112.515274,98.817688 111.403870,98.947159 
	C112.021622,98.050758 112.841400,96.684479 114.034355,96.147934 
	C115.144936,95.648438 116.652863,96.028046 117.985863,96.028023 
	C219.462738,96.026321 320.939606,96.013504 422.416412,96.093819 
	C424.905731,96.095787 427.394165,97.132141 430.163940,98.026131 
	C430.444855,98.366203 430.369598,98.717186 429.820923,98.680069 
	C428.202240,98.688850 427.132202,98.734749 425.592163,98.717331 
	C328.905914,98.640884 232.689651,98.624153 136.473404,98.621674 
	C128.985062,98.621483 121.496712,98.721146 114.008369,98.774399 
z"/>
<path fill="#E7E5E3" opacity="1.000000" stroke="none" 
	d="
M1250.703613,733.114014 
	C1252.384644,733.945312 1254.550415,734.685852 1254.919434,735.950562 
	C1255.266113,737.138977 1254.020630,739.232239 1252.870728,740.231262 
	C1252.295288,740.731201 1249.225708,739.618103 1249.240601,739.339111 
	C1249.349854,737.295227 1249.954956,735.277771 1250.703613,733.114014 
z"/>
<path fill="#231F1E" opacity="1.000000" stroke="none" 
	d="
M171.871201,853.514771 
	C171.942490,851.577271 172.216827,850.098083 172.217117,848.618896 
	C172.233566,766.700562 172.228561,684.782166 172.212692,602.863831 
	C172.212357,601.203674 172.058563,599.543579 171.880173,597.415771 
	C171.900375,596.772644 172.016769,596.597229 172.641785,596.020386 
	C173.424393,593.533203 173.937561,591.447632 173.938217,589.361877 
	C173.982758,449.724731 173.985611,310.087555 173.993881,170.450409 
	C173.994370,162.005325 174.001175,162.003891 182.205521,162.003860 
	C262.188660,162.003540 342.171783,162.011810 422.154907,161.961884 
	C424.390625,161.960480 426.625916,161.338058 429.267303,160.804596 
	C429.914612,160.422852 430.156067,160.241699 430.397491,160.060547 
	C432.367706,160.291779 434.337891,160.724808 436.308167,160.725311 
	C538.739868,160.751694 641.171631,160.742630 743.603333,160.726456 
	C745.766174,160.726120 747.929016,160.598999 750.563843,160.514862 
	C756.196167,160.589249 761.356445,160.758011 766.516724,160.758545 
	C837.646729,160.765945 908.776733,160.750153 979.906738,160.740128 
	C982.045227,160.739822 984.183716,160.740082 987.164001,160.740082 
	C987.164001,163.463470 987.164062,165.717514 987.164001,167.971573 
	C987.162720,223.609589 987.141541,279.247620 987.240784,334.885468 
	C987.244385,336.900146 988.432922,338.912689 989.420776,341.073914 
	C988.865662,343.188354 987.169434,345.153870 987.166260,347.122101 
	C987.035095,428.329895 987.050903,509.537903 987.091309,590.745911 
	C987.092224,592.542725 987.593384,594.339294 987.904968,596.546692 
	C987.677979,598.745789 987.171265,600.533997 987.170532,602.322510 
	C987.135254,684.417969 987.143433,766.513367 987.155334,848.608826 
	C987.155518,849.772583 987.266663,850.936340 987.313599,852.576599 
	C987.239258,889.217407 987.177490,925.381653 987.115051,961.545959 
	C987.111328,963.712585 987.001831,965.884705 987.120911,968.044373 
	C987.270691,970.756775 986.260803,972.139771 983.402405,971.959473 
	C981.908752,971.865295 980.403687,971.954163 978.903809,971.954224 
	C885.738525,971.957397 792.573303,971.959717 699.408020,971.966064 
	C698.242126,971.966125 697.076233,972.018677 695.446777,972.143311 
	C692.989990,972.145264 690.996826,971.968079 689.003662,971.967834 
	C584.427673,971.955139 479.851715,971.956909 375.275757,971.964233 
	C374.112122,971.964294 372.948456,972.057190 371.305237,972.181519 
	C365.006042,972.147278 359.186493,971.945862 353.366852,971.943665 
	C295.454163,971.921875 237.541443,971.936096 179.628738,971.930847 
	C172.301407,971.930176 172.159805,971.765076 172.160309,964.297058 
	C172.162628,930.015442 172.172241,895.733826 172.161804,861.452209 
	C172.161041,858.959167 172.021439,856.466064 171.871201,853.514771 
M603.774353,719.148987 
	C619.659485,732.998352 636.998840,744.726990 655.598999,754.602722 
	C657.847290,755.796448 660.349243,757.478638 662.026123,754.054626 
	C645.554626,742.923096 629.265747,731.914978 612.976929,720.906860 
	C613.175293,720.429504 613.373596,719.952148 613.571960,719.474792 
	C615.437622,719.015137 617.310852,718.584167 619.167725,718.091248 
	C631.126465,714.916687 642.910400,711.257874 652.447083,702.889832 
	C658.357178,697.703918 663.680298,691.494019 661.720276,683.122375 
	C659.681152,674.412659 651.902466,670.671204 643.979736,669.943237 
	C633.965820,669.023193 623.779175,670.039612 613.666321,670.107056 
	C610.213562,670.130127 606.758484,669.809631 603.831604,669.671082 
	C600.922363,671.204773 598.073669,672.989929 595.011841,674.261841 
	C588.568726,676.938354 582.029236,679.386597 575.498535,681.846802 
	C572.082458,683.133667 570.966736,685.319336 572.154968,688.511475 
	C581.223450,684.964233 590.166992,681.465942 600.216309,677.535034 
	C599.372803,681.938171 598.883240,684.526367 598.380615,687.112000 
	C594.690491,706.096802 591.686035,725.148987 591.898926,744.586182 
	C591.940186,748.361633 593.066895,750.537964 597.034241,750.871704 
	C597.804993,740.068481 598.556213,729.538391 600.074585,719.008362 
	C601.097168,718.987122 602.119812,718.965942 603.774353,719.148987 
M516.364990,579.499939 
	C516.364929,651.967896 516.364929,724.435791 516.364807,796.903748 
	C516.364807,799.569214 516.515320,802.245544 516.324829,804.897339 
	C516.100342,808.020386 517.448608,808.925293 520.419678,808.862915 
	C527.579956,808.712769 534.745605,808.826111 541.909119,808.830872 
	C545.833435,808.833496 549.757690,808.831360 553.728760,808.831360 
	C553.728760,664.124146 553.728760,520.266052 553.728760,376.259155 
	C541.199829,376.259155 529.009277,376.259155 516.365234,376.259155 
	C516.365234,443.948883 516.365234,511.224396 516.364990,579.499939 
M733.232239,485.795227 
	C731.733948,490.014191 729.574402,494.122009 728.843567,498.469971 
	C723.700745,529.068237 723.654663,559.795959 728.662231,590.359009 
	C731.218994,605.963989 740.219910,617.665894 755.542725,623.056763 
	C770.476807,628.310913 785.012878,626.683655 798.837524,617.992615 
	C803.094238,621.531860 807.377808,625.093506 811.915771,628.866577 
	C816.746948,623.009338 821.338440,617.442688 826.010132,611.778809 
	C821.994690,608.383972 818.332031,605.494019 814.955078,602.301880 
	C813.987305,601.387024 813.072388,599.332886 813.443604,598.250610 
	C817.621399,586.071106 818.544922,573.442505 818.278442,560.780884 
	C817.862366,541.002625 817.917542,521.117493 815.756165,501.499847 
	C813.549438,481.470581 799.713806,467.920624 781.622742,464.611969 
	C760.907288,460.823334 743.727905,468.175262 733.232239,485.795227 
M973.574158,529.500244 
	C973.574158,508.251495 973.574158,487.002716 973.574158,465.743500 
	C962.665405,465.743500 952.572266,465.743500 941.999146,465.743500 
	C941.999146,467.843750 941.999146,469.638794 941.999146,471.433807 
	C942.000183,507.083832 942.005737,542.733826 941.992554,578.383850 
	C941.991638,580.880127 942.040527,583.399292 941.741699,585.868469 
	C940.831299,593.391418 936.110107,597.378479 928.512817,597.244568 
	C921.151917,597.114868 916.554443,592.694763 916.010010,585.090576 
	C915.831909,582.602478 915.883362,580.095703 915.882996,577.597473 
	C915.877686,542.114075 915.881348,506.630646 915.882996,471.147217 
	C915.883118,469.387024 915.883057,467.626801 915.883057,465.737549 
	C904.964172,465.737549 894.713318,465.737549 884.376587,465.737549 
	C884.256348,466.674744 884.101807,467.317627 884.101746,467.960510 
	C884.098999,506.109222 883.670166,544.264587 884.247803,582.404663 
	C884.770813,616.939453 915.018066,630.554932 940.460449,624.489502 
	C961.433899,619.489624 973.194763,603.782898 973.512024,580.476257 
	C973.738770,563.820435 973.567627,547.159180 973.574158,529.500244 
M573.881348,583.574890 
	C573.945007,585.239990 573.956116,586.908936 574.080261,588.569519 
	C575.513367,607.737122 584.047729,618.853455 601.339478,623.638672 
	C612.475525,626.720459 623.741882,626.771912 634.884094,623.645447 
	C649.103210,619.655640 659.982605,611.544067 661.518433,596.033325 
	C662.721313,583.884949 662.328674,571.453430 661.353088,559.250977 
	C660.444031,547.879761 653.317383,540.135742 642.952759,535.588440 
	C635.182373,532.179260 627.332947,528.945129 619.468689,525.756470 
	C607.529053,520.915344 603.981506,513.853210 607.337585,501.295197 
	C608.856445,495.611786 612.691040,492.763916 618.716064,492.844696 
	C624.804443,492.926300 628.367554,495.773071 629.512024,501.813354 
	C630.059509,504.702850 630.157166,507.677551 630.461243,510.640320 
	C640.962219,510.640320 651.180725,510.640320 661.368896,510.640320 
	C663.193176,483.925018 650.001160,467.019287 625.128784,464.522583 
	C606.524231,462.655060 590.605225,467.760010 580.750732,484.889709 
	C574.608643,495.566101 574.665527,507.422119 575.532715,519.412354 
	C576.601379,534.188477 583.806152,543.893005 597.575623,549.137695 
	C605.500793,552.156311 613.263428,555.606079 621.069702,558.931152 
	C625.888794,560.983887 630.029907,564.052612 630.542175,569.599365 
	C631.089722,575.527954 631.336243,581.600891 630.674561,587.494080 
	C629.914795,594.260681 625.434998,597.314941 618.367004,597.234985 
	C611.275574,597.154724 607.207642,593.982361 605.984009,587.391907 
	C605.501526,584.793274 605.318542,582.139099 604.941223,579.033386 
	C595.365295,579.033386 585.907471,578.937561 576.458923,579.189880 
	C575.568237,579.213623 574.736023,581.427429 573.881348,583.574890 
M722.935669,720.443176 
	C718.613892,727.316895 717.826538,734.712341 719.921204,742.598816 
	C716.752258,744.766479 713.635376,745.529724 710.730225,742.741028 
	C707.983093,740.104065 706.937012,737.474182 708.783508,733.140869 
	C713.074829,723.069946 716.620544,712.646301 719.856628,702.176453 
	C721.357727,697.320190 721.868164,692.029297 721.944458,686.922180 
	C721.976501,684.779053 719.719482,682.601624 718.503113,680.439819 
	C716.342285,681.669556 713.180237,682.374939 712.209778,684.228149 
	C709.380981,689.630005 707.004944,695.363708 705.253113,701.207642 
	C703.553955,706.875916 702.848572,712.842041 701.717407,718.622986 
	C693.875610,719.241455 690.003052,724.266235 686.609253,730.383545 
	C684.317200,734.515076 681.445557,738.538086 678.042603,741.779907 
	C674.692322,744.971619 670.263489,745.566345 665.494263,742.843445 
	C666.366699,741.598022 667.033508,740.858643 667.461365,740.000244 
	C669.969910,734.966370 672.781250,730.040710 674.766907,724.804138 
	C676.070251,721.367065 675.328979,717.665894 671.329712,715.981018 
	C667.632507,714.423279 665.303833,716.875427 663.399536,719.512512 
	C659.306763,725.180176 657.873779,731.567749 658.882690,738.467224 
	C660.229858,747.679932 669.671082,752.292542 677.716736,747.565979 
	C680.101013,746.165344 682.135254,744.168945 684.534485,742.284790 
	C685.858398,747.051392 688.827820,750.334961 693.502563,749.061218 
	C697.376160,748.005798 700.728027,745.035461 704.377441,742.874146 
	C710.589905,750.382812 713.676025,751.031250 720.506958,747.370422 
	C726.555664,748.006897 731.167542,749.625610 735.073242,748.587524 
	C739.058044,747.528442 742.348938,743.858887 746.118225,741.209534 
	C749.256958,746.864319 754.567200,751.076843 761.295288,749.414551 
	C767.203796,747.954590 772.472107,743.903625 777.981995,741.018677 
	C782.526306,751.858582 787.193298,752.293945 800.022461,743.034973 
	C802.858337,745.610291 805.213013,749.417603 808.170593,749.964661 
	C811.125183,750.511108 814.683350,747.794312 818.133179,746.447083 
	C818.903687,751.307251 818.981262,756.011353 815.230713,761.148254 
	C810.591064,767.502808 807.101379,774.893555 804.220642,782.268677 
	C802.211853,787.411499 801.324646,793.286438 801.371338,798.822205 
	C801.397156,801.887573 803.640137,806.256042 806.193665,807.667969 
	C810.007507,809.776733 814.127075,807.079956 816.390015,803.542419 
	C818.687317,799.951111 821.220459,795.937927 821.707947,791.876343 
	C822.850708,782.355103 823.082275,772.696655 823.168396,763.089111 
	C823.206116,758.880432 823.072021,755.177429 827.480835,752.977966 
	C828.216980,752.610718 828.467041,751.269104 829.524536,749.283142 
	C826.680664,750.028931 825.051392,750.456177 821.852966,751.294922 
	C823.621399,740.460693 825.275085,730.329651 827.129395,718.969666 
	C824.716370,720.434570 822.998352,721.477478 821.285339,722.517395 
	C815.774780,717.771484 811.197571,718.215515 807.158142,724.081421 
	C805.845581,725.987488 805.133972,728.320740 803.755249,730.165344 
	C800.396118,734.659729 797.346375,739.606689 793.170715,743.211609 
	C788.277283,747.436279 783.344543,744.836060 782.868958,738.368591 
	C782.663025,735.568237 783.223450,732.716492 783.096985,729.903381 
	C783.021362,728.222595 782.289368,726.571289 781.852356,724.906677 
	C780.599060,726.304260 778.767090,727.499023 778.193665,729.134949 
	C775.833740,735.867371 771.952393,741.259277 765.555786,744.523560 
	C761.580505,746.552307 759.016785,746.121521 755.666809,743.463135 
	C760.647583,740.757446 763.710938,736.913330 762.519592,730.972107 
	C761.444946,725.613342 760.266479,720.262390 758.776794,715.009277 
	C758.414124,713.730347 756.691772,712.073975 755.519287,712.011780 
	C754.442505,711.954590 752.832520,713.608521 752.235107,714.875305 
	C751.406250,716.632507 751.691345,718.927673 750.822327,720.651123 
	C747.492065,727.255676 744.545166,734.206787 740.195312,740.098328 
	C736.343811,745.314697 730.775940,745.589355 726.834534,742.983765 
	C729.531006,737.213684 732.451965,731.641296 734.737610,725.819458 
	C736.124939,722.285767 736.096619,718.303467 732.038391,716.190918 
	C727.966370,714.070984 725.552185,716.965820 722.935669,720.443176 
M965.886780,771.499329 
	C965.799255,768.835449 965.937195,766.140381 965.573730,763.514709 
	C964.962219,759.096985 965.203430,755.262573 969.826904,752.930908 
	C970.572693,752.554688 970.762146,751.075134 971.651733,749.143982 
	C968.709473,750.030457 967.054016,750.529236 963.881775,751.484985 
	C965.792847,740.523071 967.542542,730.487122 969.479065,719.379456 
	C967.366638,720.318665 965.542908,721.129517 963.555481,722.013123 
	C957.126953,717.466431 952.773315,718.386230 948.469482,725.628174 
	C947.197876,727.767883 946.361877,730.194763 944.921814,732.199524 
	C942.417664,735.685364 940.020874,739.468140 936.754028,742.103516 
	C934.797119,743.682007 930.653748,744.521118 928.632385,743.480225 
	C926.708313,742.489502 925.616760,738.690369 925.341125,736.004700 
	C925.027649,732.949463 926.378906,729.752258 926.312744,726.631470 
	C926.275574,724.878723 924.836853,723.155640 924.029602,721.419189 
	C922.530762,722.569702 920.446228,723.411194 919.644958,724.929688 
	C917.400452,729.183472 915.737244,733.740295 913.727966,738.124023 
	C913.186829,739.304688 912.229919,740.294861 911.083496,741.907532 
	C910.635620,740.488892 910.353943,740.025146 910.369324,739.571472 
	C910.436646,737.575745 910.679749,735.583252 910.687622,733.588867 
	C910.696106,731.440613 910.850586,729.208008 910.342773,727.160645 
	C909.317505,723.026978 906.835632,722.373962 904.090149,725.469421 
	C902.346863,727.435120 901.131714,729.860168 899.471436,731.910583 
	C896.253967,735.884277 893.374634,740.343018 889.460266,743.486328 
	C884.841248,747.195679 880.166565,744.812805 879.506714,738.915833 
	C879.178528,735.982971 879.863770,732.949768 879.756653,729.973999 
	C879.695801,728.283997 878.960571,726.618286 878.529053,724.941589 
	C877.332520,726.351379 875.340576,727.628845 875.080139,729.194336 
	C874.066528,735.287170 870.529724,739.602783 865.707458,742.716980 
	C863.766663,743.970398 860.169617,744.519348 858.326233,743.528625 
	C856.561035,742.579895 855.392944,739.270020 855.219971,736.905884 
	C854.969543,733.484375 856.194458,729.971436 856.106812,726.514771 
	C856.062805,724.777588 854.511047,723.078674 853.641113,721.362427 
	C852.207520,722.399231 850.167542,723.127563 849.453674,724.530579 
	C847.270630,728.821106 845.653748,733.395996 843.692139,737.804993 
	C843.098694,739.138550 842.099854,740.291748 841.286743,741.527588 
	C840.328064,736.766113 840.615967,732.458557 840.182678,728.224854 
	C840.015381,726.589661 838.211609,725.121948 837.153381,723.577942 
	C835.166260,725.605957 832.950928,727.468567 831.302979,729.742371 
	C830.631775,730.668579 831.192078,732.487366 831.192078,733.900024 
	C831.629150,733.860107 832.066223,733.820190 832.503296,733.780273 
	C833.479797,732.424927 834.456238,731.069641 835.872131,729.104370 
	C835.872131,733.551758 835.482666,737.069702 836.007080,740.445740 
	C836.365601,742.754028 837.998352,744.864319 839.061523,747.063232 
	C841.138245,745.694153 843.782837,744.739441 845.156250,742.857117 
	C847.126282,740.156982 848.169067,736.780396 850.140625,732.548828 
	C851.246277,739.600220 849.961365,746.711975 858.372192,748.334351 
	C865.737854,749.755066 869.818970,744.470032 874.448364,740.189148 
	C878.795105,750.554260 885.792603,752.487061 893.566833,745.575806 
	C896.138550,743.289551 898.150696,740.336243 900.235291,737.550720 
	C902.151733,734.990051 903.821655,732.245056 906.078369,728.865112 
	C906.078369,733.790894 905.777344,737.714966 906.207092,741.557251 
	C906.417664,743.439453 907.828857,746.523621 908.976013,746.656738 
	C910.771301,746.864990 913.427246,745.504395 914.599792,743.959351 
	C916.747498,741.129456 918.078552,737.679810 920.344055,733.354736 
	C921.421021,739.723083 920.482239,746.185120 927.633118,748.133423 
	C934.220703,749.928162 938.631348,746.038513 943.018494,742.043152 
	C947.225403,752.106750 950.716309,752.803223 960.020508,745.735291 
	C961.984924,752.718079 961.619385,755.261475 957.790527,760.318787 
	C951.472290,768.664246 946.925354,777.916565 944.745056,788.113647 
	C943.760010,792.720398 943.469421,797.720947 944.115845,802.368591 
	C944.906433,808.052551 949.894531,810.226257 954.575684,806.928284 
	C957.661926,804.753845 960.979431,801.344666 961.848389,797.897339 
	C963.936096,789.614807 964.642517,780.984131 965.886780,771.499329 
M778.252991,718.387756 
	C780.670410,720.511658 782.967041,720.367126 784.194092,717.358093 
	C784.702637,716.110962 784.180664,714.078491 783.425537,712.826416 
	C783.013000,712.142456 780.298279,711.839294 780.062378,712.231262 
	C779.060181,713.896667 778.596985,715.886414 778.252991,718.387756 
M880.479065,713.082397 
	C878.799316,713.105652 876.501282,712.481079 875.610596,713.331116 
	C874.687134,714.212463 874.768738,716.606262 875.134216,718.169373 
	C875.296814,718.864868 877.897217,719.829224 878.244934,719.491516 
	C879.479187,718.292664 880.270081,716.612305 881.106506,715.048950 
	C881.282349,714.720276 880.938965,714.113770 880.479065,713.082397 
z"/>
<path fill="#AACC36" opacity="1.000000" stroke="none" 
	d="
M430.365784,159.672592 
	C430.156067,160.241699 429.914612,160.422852 428.875732,160.732727 
	C427.010529,160.745529 425.942810,160.629608 425.029358,160.192810 
	C426.146759,158.017838 427.920990,156.174652 427.946106,154.307922 
	C428.169006,137.747162 428.149078,121.181602 427.997528,104.619316 
	C427.979675,102.667358 426.737061,100.726601 426.062195,98.780655 
	C427.132202,98.734749 428.202240,98.688850 429.662354,98.764160 
	C430.146332,119.018456 430.240204,139.151550 430.365784,159.672592 
z"/>
<path fill="#FECD03" opacity="1.000000" stroke="none" 
	d="
M425.592194,98.717323 
	C426.737061,100.726601 427.979675,102.667358 427.997528,104.619316 
	C428.149078,121.181602 428.169006,137.747162 427.946106,154.307922 
	C427.920990,156.174652 426.146759,158.017838 424.575073,160.239624 
	C361.657501,160.621643 299.348480,160.646698 237.039490,160.644135 
	C216.715408,160.643295 196.391327,160.570480 175.955261,160.393066 
	C175.545898,160.350525 175.248505,160.445511 174.592194,160.600037 
	C173.493912,161.186859 172.754517,161.714127 172.015121,162.241379 
	C171.702591,164.485382 171.119186,166.729126 171.117188,168.973404 
	C171.068542,223.636810 171.083313,278.300262 171.082047,332.963715 
	C171.081894,340.048279 171.070114,340.058075 164.017334,340.056976 
	C148.684906,340.054596 133.351028,339.923767 118.021049,340.112579 
	C114.053505,340.161407 112.860291,338.873413 112.864937,334.961731 
	C112.956245,258.133057 112.931618,181.304214 112.970551,104.475426 
	C112.971375,102.846573 113.443039,101.217957 113.851715,99.181816 
	C121.496712,98.721146 128.985062,98.621483 136.473404,98.621674 
	C232.689651,98.624153 328.905914,98.640884 425.592194,98.717323 
z"/>
<path fill="#3C3001" opacity="1.000000" stroke="none" 
	d="
M172.115417,162.676346 
	C172.754517,161.714127 173.493912,161.186859 174.872070,160.674774 
	C175.696335,160.636841 175.881790,160.583710 176.067245,160.530594 
	C196.391327,160.570480 216.715408,160.643295 237.039490,160.644135 
	C299.348480,160.646698 361.657501,160.621643 424.420776,160.560486 
	C425.942810,160.629608 427.010529,160.745529 428.469849,160.933319 
	C426.625916,161.338058 424.390625,161.960480 422.154907,161.961884 
	C342.171783,162.011810 262.188660,162.003540 182.205521,162.003860 
	C174.001175,162.003891 173.994370,162.005325 173.993881,170.450409 
	C173.985611,310.087555 173.982758,449.724731 173.938217,589.361877 
	C173.937561,591.447632 173.424393,593.533203 172.813675,595.755493 
	C172.368500,594.070801 172.165527,592.249573 172.165115,590.428345 
	C172.146454,507.795471 172.135605,425.162567 172.145813,342.529694 
	C172.153198,282.723572 172.191315,222.917435 172.115417,162.676346 
z"/>
<path fill="#2A2625" opacity="1.000000" stroke="none" 
	d="
M1299.653564,522.355957 
	C1296.901489,530.063171 1294.280518,531.993286 1286.760620,532.060120 
	C1282.807983,532.095276 1278.854858,532.066345 1274.634521,532.066345 
	C1274.634521,518.769409 1274.634521,505.884705 1274.634521,491.987762 
	C1280.594849,492.300110 1286.561035,492.024414 1292.281006,493.080963 
	C1297.801147,494.100586 1299.620239,499.138367 1299.930420,504.101379 
	C1300.301270,510.031494 1299.867798,516.011902 1299.653564,522.355957 
z"/>
<path fill="#292726" opacity="1.000000" stroke="none" 
	d="
M1128.948486,524.947815 
	C1132.020264,539.635986 1135.002930,553.908752 1138.079346,568.629822 
	C1129.935303,568.629822 1122.224976,568.629822 1113.750488,568.629822 
	C1117.603027,549.995911 1121.438110,531.446167 1125.273315,512.896423 
	C1125.652710,512.857788 1126.032104,512.819214 1126.411499,512.780579 
	C1127.227417,516.697876 1128.043335,520.615112 1128.948486,524.947815 
z"/>
<path fill="#2F2D2B" opacity="1.000000" stroke="none" 
	d="
M1342.295288,748.278809 
	C1343.064941,746.282776 1343.671631,744.633057 1344.396851,742.661072 
	C1347.802246,747.071228 1348.734253,751.734192 1347.479370,756.541199 
	C1347.033569,758.248535 1344.940063,759.668579 1343.323364,760.839478 
	C1342.843994,761.186646 1340.732300,760.435669 1340.563232,759.845520 
	C1339.977417,757.801147 1339.520264,755.555725 1339.781982,753.483887 
	C1339.995728,751.792297 1341.307495,750.239441 1342.295288,748.278809 
z"/>
<path fill="#32302F" opacity="1.000000" stroke="none" 
	d="
M1379.920410,752.971191 
	C1379.721069,754.689514 1379.977417,756.452698 1379.225586,757.195557 
	C1377.638062,758.764038 1375.523315,759.799011 1373.624878,761.052979 
	C1372.853027,758.614197 1371.031494,755.924255 1371.541504,753.792053 
	C1372.433350,750.063660 1374.757935,746.678040 1377.061279,741.963440 
	C1378.173096,746.082764 1379.046265,749.318298 1379.920410,752.971191 
z"/>
<path fill="#312F2D" opacity="1.000000" stroke="none" 
	d="
M1220.929565,753.059387 
	C1222.245605,749.489258 1223.419556,746.294800 1224.759033,742.650085 
	C1228.163574,746.580383 1228.847290,750.831482 1228.359863,755.394409 
	C1227.996826,758.792725 1226.046875,761.755249 1222.703613,760.867126 
	C1219.321899,759.968811 1219.198364,756.523987 1220.929565,753.059387 
z"/>
<path fill="#353432" opacity="1.000000" stroke="none" 
	d="
M1318.057373,751.855469 
	C1316.634644,754.610840 1315.320923,756.995178 1313.703125,759.931213 
	C1311.849487,752.579529 1314.419312,744.594666 1320.518555,741.663330 
	C1319.734497,744.937073 1318.950439,748.210754 1318.057373,751.855469 
z"/>
<path fill="#252221" opacity="1.000000" stroke="none" 
	d="
M1115.301025,731.207581 
	C1129.299683,727.773499 1142.792480,728.359192 1156.171021,732.045776 
	C1159.513550,732.966797 1162.874023,734.165405 1165.895508,735.834839 
	C1171.453979,738.906006 1173.077637,743.673035 1169.399658,748.789551 
	C1166.612183,752.667480 1162.607788,756.313904 1158.330444,758.364624 
	C1141.259521,766.548889 1122.964722,769.450134 1103.581665,769.470093 
	C1103.581665,756.991943 1103.581665,744.804565 1103.581665,732.279724 
	C1107.685669,731.913879 1111.273193,731.594055 1115.301025,731.207581 
z"/>
<path fill="#272423" opacity="1.000000" stroke="none" 
	d="
M1165.898193,706.721191 
	C1164.824707,708.386353 1164.063354,710.078430 1162.755127,710.906738 
	C1151.713257,717.898621 1140.063843,723.381836 1126.680786,723.752808 
	C1119.578979,723.949646 1112.467163,723.787598 1104.342163,723.787598 
	C1105.855225,715.321533 1107.410400,706.400391 1109.119385,697.508850 
	C1109.243164,696.864136 1110.437988,696.050842 1111.210083,695.960632 
	C1126.104248,694.221802 1141.044922,692.673218 1155.641113,697.626587 
	C1160.042603,699.120239 1165.203369,700.285095 1165.898193,706.721191 
z"/>
<path fill="#F9B01E" opacity="1.000000" stroke="none" 
	d="
M516.365112,578.999878 
	C516.365234,511.224396 516.365234,443.948883 516.365234,376.259155 
	C529.009277,376.259155 541.199829,376.259155 553.728760,376.259155 
	C553.728760,520.266052 553.728760,664.124146 553.728760,808.831360 
	C549.757690,808.831360 545.833435,808.833496 541.909119,808.830872 
	C534.745605,808.826111 527.579956,808.712769 520.419678,808.862915 
	C517.448608,808.925293 516.100342,808.020386 516.324829,804.897339 
	C516.515320,802.245544 516.364807,799.569214 516.364807,796.903748 
	C516.364929,724.435791 516.364929,651.967896 516.365112,578.999878 
z"/>
<path fill="#FCFCFC" opacity="1.000000" stroke="none" 
	d="
M733.421387,485.477020 
	C743.727905,468.175262 760.907288,460.823334 781.622742,464.611969 
	C799.713806,467.920624 813.549438,481.470581 815.756165,501.499847 
	C817.917542,521.117493 817.862366,541.002625 818.278442,560.780884 
	C818.544922,573.442505 817.621399,586.071106 813.443604,598.250610 
	C813.072388,599.332886 813.987305,601.387024 814.955078,602.301880 
	C818.332031,605.494019 821.994690,608.383972 826.010132,611.778809 
	C821.338440,617.442688 816.746948,623.009338 811.915771,628.866577 
	C807.377808,625.093506 803.094238,621.531860 798.837524,617.992615 
	C785.012878,626.683655 770.476807,628.310913 755.542725,623.056763 
	C740.219910,617.665894 731.218994,605.963989 728.662231,590.359009 
	C723.654663,559.795959 723.700745,529.068237 728.843567,498.469971 
	C729.574402,494.122009 731.733948,490.014191 733.421387,485.477020 
M758.014465,514.610596 
	C758.013184,534.748352 757.776184,554.890625 758.168213,575.020752 
	C758.272522,580.377441 759.765259,585.891907 761.603577,590.978699 
	C763.495972,596.215027 767.161194,597.596252 773.574158,596.396301 
	C771.452393,594.986694 769.822510,593.903870 767.958679,592.665588 
	C772.228271,587.472656 775.768311,582.871582 779.664490,578.594849 
	C780.958984,577.173950 783.168091,576.586182 786.158997,574.968506 
	C787.148438,552.836487 787.887512,529.067017 784.786560,505.351074 
	C784.530945,503.396149 783.880249,501.448730 783.135132,499.610504 
	C781.126343,494.655029 777.284363,492.246185 771.767761,492.305267 
	C766.578064,492.360840 762.562744,494.509460 761.053284,499.612640 
	C759.695435,504.202637 759.027161,508.996552 758.014465,514.610596 
z"/>
<path fill="#FBFBFB" opacity="1.000000" stroke="none" 
	d="
M973.574097,530.000244 
	C973.567627,547.159180 973.738770,563.820435 973.512024,580.476257 
	C973.194763,603.782898 961.433899,619.489624 940.460449,624.489502 
	C915.018066,630.554932 884.770813,616.939453 884.247803,582.404663 
	C883.670166,544.264587 884.098999,506.109222 884.101746,467.960510 
	C884.101807,467.317627 884.256348,466.674744 884.376587,465.737549 
	C894.713318,465.737549 904.964172,465.737549 915.883057,465.737549 
	C915.883057,467.626801 915.883118,469.387024 915.882996,471.147217 
	C915.881348,506.630646 915.877686,542.114075 915.882996,577.597473 
	C915.883362,580.095703 915.831909,582.602478 916.010010,585.090576 
	C916.554443,592.694763 921.151917,597.114868 928.512817,597.244568 
	C936.110107,597.378479 940.831299,593.391418 941.741699,585.868469 
	C942.040527,583.399292 941.991638,580.880127 941.992554,578.383850 
	C942.005737,542.733826 942.000183,507.083832 941.999146,471.433807 
	C941.999146,469.638794 941.999146,467.843750 941.999146,465.743500 
	C952.572266,465.743500 962.665405,465.743500 973.574158,465.743500 
	C973.574158,487.002716 973.574158,508.251495 973.574097,530.000244 
z"/>
<path fill="#FCFBFB" opacity="1.000000" stroke="none" 
	d="
M573.879028,583.099609 
	C574.736023,581.427429 575.568237,579.213623 576.458923,579.189880 
	C585.907471,578.937561 595.365295,579.033386 604.941223,579.033386 
	C605.318542,582.139099 605.501526,584.793274 605.984009,587.391907 
	C607.207642,593.982361 611.275574,597.154724 618.367004,597.234985 
	C625.434998,597.314941 629.914795,594.260681 630.674561,587.494080 
	C631.336243,581.600891 631.089722,575.527954 630.542175,569.599365 
	C630.029907,564.052612 625.888794,560.983887 621.069702,558.931152 
	C613.263428,555.606079 605.500793,552.156311 597.575623,549.137695 
	C583.806152,543.893005 576.601379,534.188477 575.532715,519.412354 
	C574.665527,507.422119 574.608643,495.566101 580.750732,484.889709 
	C590.605225,467.760010 606.524231,462.655060 625.128784,464.522583 
	C650.001160,467.019287 663.193176,483.925018 661.368896,510.640320 
	C651.180725,510.640320 640.962219,510.640320 630.461243,510.640320 
	C630.157166,507.677551 630.059509,504.702850 629.512024,501.813354 
	C628.367554,495.773071 624.804443,492.926300 618.716064,492.844696 
	C612.691040,492.763916 608.856445,495.611786 607.337585,501.295197 
	C603.981506,513.853210 607.529053,520.915344 619.468689,525.756470 
	C627.332947,528.945129 635.182373,532.179260 642.952759,535.588440 
	C653.317383,540.135742 660.444031,547.879761 661.353088,559.250977 
	C662.328674,571.453430 662.721313,583.884949 661.518433,596.033325 
	C659.982605,611.544067 649.103210,619.655640 634.884094,623.645447 
	C623.741882,626.771912 612.475525,626.720459 601.339478,623.638672 
	C584.047729,618.853455 575.513367,607.737122 574.080261,588.569519 
	C573.956116,586.908936 573.945007,585.239990 573.879028,583.099609 
z"/>
<path fill="#EDECEB" opacity="1.000000" stroke="none" 
	d="
M723.134766,720.139893 
	C725.552185,716.965820 727.966370,714.070984 732.038391,716.190918 
	C736.096619,718.303467 736.124939,722.285767 734.737610,725.819458 
	C732.451965,731.641296 729.531006,737.213684 726.834534,742.983765 
	C730.775940,745.589355 736.343811,745.314697 740.195312,740.098328 
	C744.545166,734.206787 747.492065,727.255676 750.822327,720.651123 
	C751.691345,718.927673 751.406250,716.632507 752.235107,714.875305 
	C752.832520,713.608521 754.442505,711.954590 755.519287,712.011780 
	C756.691772,712.073975 758.414124,713.730347 758.776794,715.009277 
	C760.266479,720.262390 761.444946,725.613342 762.519592,730.972107 
	C763.710938,736.913330 760.647583,740.757446 755.666809,743.463135 
	C759.016785,746.121521 761.580505,746.552307 765.555786,744.523560 
	C771.952393,741.259277 775.833740,735.867371 778.193665,729.134949 
	C778.767090,727.499023 780.599060,726.304260 781.852417,724.906738 
	C782.289368,726.571289 783.021362,728.222595 783.096985,729.903381 
	C783.223450,732.716492 782.663025,735.568237 782.868958,738.368591 
	C783.344543,744.836060 788.277283,747.436279 793.170715,743.211609 
	C797.346375,739.606689 800.396118,734.659729 803.755249,730.165344 
	C805.133972,728.320740 805.845581,725.987488 807.158142,724.081421 
	C811.197571,718.215515 815.774780,717.771484 821.285339,722.517395 
	C822.998352,721.477478 824.716370,720.434570 827.129395,718.969666 
	C825.275085,730.329651 823.621399,740.460693 821.852966,751.294922 
	C825.051392,750.456177 826.680664,750.028931 829.524536,749.283142 
	C828.467041,751.269104 828.216980,752.610718 827.480835,752.977966 
	C823.072021,755.177429 823.206116,758.880432 823.168396,763.089111 
	C823.082275,772.696655 822.850708,782.355103 821.707947,791.876343 
	C821.220459,795.937927 818.687317,799.951111 816.390015,803.542419 
	C814.127075,807.079956 810.007507,809.776733 806.193665,807.667969 
	C803.640137,806.256042 801.397156,801.887573 801.371338,798.822205 
	C801.324646,793.286438 802.211853,787.411499 804.220642,782.268677 
	C807.101379,774.893555 810.591064,767.502808 815.230713,761.148254 
	C818.981262,756.011353 818.903687,751.307251 818.133179,746.447083 
	C814.683350,747.794312 811.125183,750.511108 808.170593,749.964661 
	C805.213013,749.417603 802.858337,745.610291 800.022461,743.034973 
	C787.193298,752.293945 782.526306,751.858582 777.981995,741.018677 
	C772.472107,743.903625 767.203796,747.954590 761.295288,749.414551 
	C754.567200,751.076843 749.256958,746.864319 746.118225,741.209534 
	C742.348938,743.858887 739.058044,747.528442 735.073242,748.587524 
	C731.167542,749.625610 726.555664,748.006897 720.506958,747.370422 
	C713.676025,751.031250 710.589905,750.382812 704.377441,742.874146 
	C700.728027,745.035461 697.376160,748.005798 693.502563,749.061218 
	C688.827820,750.334961 685.858398,747.051392 684.534485,742.284790 
	C682.135254,744.168945 680.101013,746.165344 677.716736,747.565979 
	C669.671082,752.292542 660.229858,747.679932 658.882690,738.467224 
	C657.873779,731.567749 659.306763,725.180176 663.399536,719.512512 
	C665.303833,716.875427 667.632507,714.423279 671.329712,715.981018 
	C675.328979,717.665894 676.070251,721.367065 674.766907,724.804138 
	C672.781250,730.040710 669.969910,734.966370 667.461365,740.000244 
	C667.033508,740.858643 666.366699,741.598022 665.494263,742.843445 
	C670.263489,745.566345 674.692322,744.971619 678.042603,741.779907 
	C681.445557,738.538086 684.317200,734.515076 686.609253,730.383545 
	C690.003052,724.266235 693.875610,719.241455 701.717407,718.622986 
	C702.848572,712.842041 703.553955,706.875916 705.253113,701.207642 
	C707.004944,695.363708 709.380981,689.630005 712.209778,684.228149 
	C713.180237,682.374939 716.342285,681.669556 718.503113,680.439819 
	C719.719482,682.601624 721.976501,684.779053 721.944458,686.922180 
	C721.868164,692.029297 721.357727,697.320190 719.856628,702.176453 
	C716.620544,712.646301 713.074829,723.069946 708.783508,733.140869 
	C706.937012,737.474182 707.983093,740.104065 710.730225,742.741028 
	C713.635376,745.529724 716.752258,744.766479 719.921204,742.598816 
	C717.826538,734.712341 718.613892,727.316895 723.134766,720.139893 
M812.606079,772.123169 
	C810.201477,780.007019 807.389954,787.801208 805.621521,795.825195 
	C805.032593,798.497437 806.511719,803.894958 808.094360,804.343201 
	C812.520081,805.596741 813.979553,801.027344 815.247009,797.716248 
	C819.490479,786.630920 818.701965,775.015564 817.856812,763.111755 
	C816.221497,765.896362 814.586182,768.681030 812.606079,772.123169 
M717.080017,687.411072 
	C715.875183,688.228027 713.930847,688.809204 713.583313,689.899414 
	C710.968994,698.100525 708.385315,706.334290 706.390991,714.700562 
	C705.399353,718.860352 705.669067,723.320923 705.368225,727.645386 
	C712.370300,715.214600 716.380859,702.167053 717.080017,687.411072 
M806.841248,738.713684 
	C806.752380,740.206604 806.481628,741.715393 806.610413,743.189331 
	C806.932251,746.873596 808.978943,747.709778 811.973145,745.496643 
	C816.510132,742.143250 820.000366,731.879089 818.443298,726.469543 
	C817.265747,722.378601 814.672607,721.569397 812.338928,725.199097 
	C809.897278,728.996887 808.700317,733.594971 806.841248,738.713684 
M702.263794,734.998657 
	C702.065063,732.518738 702.037048,730.008484 701.603333,727.570374 
	C701.345703,726.122620 700.669800,723.836731 699.786865,723.631958 
	C698.539490,723.342834 696.523987,724.254150 695.540283,725.308655 
	C691.405579,729.740479 689.306335,735.087036 689.799866,741.215210 
	C690.115479,745.133911 692.961304,746.588257 695.926880,743.991455 
	C698.456726,741.776184 700.150818,738.606445 702.263794,734.998657 
M756.488892,737.807678 
	C759.030823,732.169983 757.726196,727.077332 754.324768,721.522827 
	C752.635010,725.826599 750.871643,729.378357 749.919067,733.135681 
	C749.434631,735.046387 750.409363,737.327026 750.724487,739.440430 
	C752.482483,739.106750 754.240417,738.773010 756.488892,737.807678 
M664.157349,728.897461 
	C663.716492,731.984375 663.275696,735.071350 662.673706,739.286682 
	C668.807251,733.610107 671.688660,725.070129 669.172119,718.983215 
	C667.285339,722.610657 665.849609,725.370972 664.157349,728.897461 
M731.093811,722.827576 
	C730.930786,720.175293 729.667664,719.151794 727.924683,721.531799 
	C724.390381,726.357910 723.042969,731.880737 723.380615,737.709961 
	C724.035706,737.934021 724.690857,738.158142 725.345947,738.382202 
	C727.248413,733.461670 729.150818,728.541077 731.093811,722.827576 
z"/>
<path fill="#EBEAE9" opacity="1.000000" stroke="none" 
	d="
M965.896484,771.996643 
	C964.642517,780.984131 963.936096,789.614807 961.848389,797.897339 
	C960.979431,801.344666 957.661926,804.753845 954.575684,806.928284 
	C949.894531,810.226257 944.906433,808.052551 944.115845,802.368591 
	C943.469421,797.720947 943.760010,792.720398 944.745056,788.113647 
	C946.925354,777.916565 951.472290,768.664246 957.790527,760.318787 
	C961.619385,755.261475 961.984924,752.718079 960.020508,745.735291 
	C950.716309,752.803223 947.225403,752.106750 943.018494,742.043152 
	C938.631348,746.038513 934.220703,749.928162 927.633118,748.133423 
	C920.482239,746.185120 921.421021,739.723083 920.344055,733.354736 
	C918.078552,737.679810 916.747498,741.129456 914.599792,743.959351 
	C913.427246,745.504395 910.771301,746.864990 908.976013,746.656738 
	C907.828857,746.523621 906.417664,743.439453 906.207092,741.557251 
	C905.777344,737.714966 906.078369,733.790894 906.078369,728.865112 
	C903.821655,732.245056 902.151733,734.990051 900.235291,737.550720 
	C898.150696,740.336243 896.138550,743.289551 893.566833,745.575806 
	C885.792603,752.487061 878.795105,750.554260 874.448364,740.189148 
	C869.818970,744.470032 865.737854,749.755066 858.372192,748.334351 
	C849.961365,746.711975 851.246277,739.600220 850.140625,732.548828 
	C848.169067,736.780396 847.126282,740.156982 845.156250,742.857117 
	C843.782837,744.739441 841.138245,745.694153 839.061523,747.063232 
	C837.998352,744.864319 836.365601,742.754028 836.007080,740.445740 
	C835.482666,737.069702 835.872131,733.551758 835.872131,729.104370 
	C834.456238,731.069641 833.479797,732.424927 832.503296,733.780273 
	C832.066223,733.820190 831.629150,733.860107 831.192078,733.900024 
	C831.192078,732.487366 830.631775,730.668579 831.302979,729.742371 
	C832.950928,727.468567 835.166260,725.605957 837.153381,723.577942 
	C838.211609,725.121948 840.015381,726.589661 840.182678,728.224854 
	C840.615967,732.458557 840.328064,736.766113 841.286743,741.527588 
	C842.099854,740.291748 843.098694,739.138550 843.692139,737.804993 
	C845.653748,733.395996 847.270630,728.821106 849.453674,724.530579 
	C850.167542,723.127563 852.207520,722.399231 853.641113,721.362427 
	C854.511047,723.078674 856.062805,724.777588 856.106812,726.514771 
	C856.194458,729.971436 854.969543,733.484375 855.219971,736.905884 
	C855.392944,739.270020 856.561035,742.579895 858.326233,743.528625 
	C860.169617,744.519348 863.766663,743.970398 865.707458,742.716980 
	C870.529724,739.602783 874.066528,735.287170 875.080139,729.194336 
	C875.340576,727.628845 877.332520,726.351379 878.529053,724.941589 
	C878.960571,726.618286 879.695801,728.283997 879.756653,729.973999 
	C879.863770,732.949768 879.178528,735.982971 879.506714,738.915833 
	C880.166565,744.812805 884.841248,747.195679 889.460266,743.486328 
	C893.374634,740.343018 896.253967,735.884277 899.471436,731.910583 
	C901.131714,729.860168 902.346863,727.435120 904.090149,725.469421 
	C906.835632,722.373962 909.317505,723.026978 910.342773,727.160645 
	C910.850586,729.208008 910.696106,731.440613 910.687622,733.588867 
	C910.679749,735.583252 910.436646,737.575745 910.369324,739.571472 
	C910.353943,740.025146 910.635620,740.488892 911.083496,741.907532 
	C912.229919,740.294861 913.186829,739.304688 913.727966,738.124023 
	C915.737244,733.740295 917.400452,729.183472 919.644958,724.929688 
	C920.446228,723.411194 922.530762,722.569702 924.029541,721.419189 
	C924.836853,723.155640 926.275574,724.878723 926.312744,726.631470 
	C926.378906,729.752258 925.027649,732.949463 925.341125,736.004700 
	C925.616760,738.690369 926.708313,742.489502 928.632385,743.480225 
	C930.653748,744.521118 934.797119,743.682007 936.754028,742.103516 
	C940.020874,739.468140 942.417664,735.685364 944.921814,732.199524 
	C946.361877,730.194763 947.197876,727.767883 948.469482,725.628174 
	C952.773315,718.386230 957.126953,717.466431 963.555481,722.013123 
	C965.542908,721.129517 967.366638,720.318665 969.479065,719.379456 
	C967.542542,730.487122 965.792847,740.523071 963.881775,751.484985 
	C967.054016,750.529236 968.709473,750.030457 971.651733,749.143982 
	C970.762146,751.075134 970.572693,752.554688 969.826904,752.930908 
	C965.203430,755.262573 964.962219,759.096985 965.573730,763.514709 
	C965.937195,766.140381 965.799255,768.835449 965.896484,771.996643 
M959.738770,764.049622 
	C952.877136,774.427429 947.534546,785.379883 947.877747,798.199707 
	C947.936462,800.393005 949.411560,802.548340 950.232300,804.721252 
	C952.228577,803.294067 954.226624,801.869507 956.216370,800.433350 
	C956.341553,800.342957 956.418701,800.169373 956.487732,800.020447 
	C961.888855,788.366150 961.467957,776.023438 960.764587,763.651062 
	C960.761658,763.599731 960.463501,763.565125 959.738770,764.049622 
M951.093262,730.882202 
	C950.375000,734.625061 949.442871,738.345703 949.049316,742.122375 
	C948.902893,743.527832 950.016663,745.064575 950.555786,746.541504 
	C952.138184,745.841919 954.401184,745.577148 955.177307,744.362427 
	C957.661926,740.473389 960.372986,736.423523 961.447266,732.054749 
	C962.080200,729.480652 959.780151,726.185242 958.799255,723.214233 
	C956.706177,724.788208 954.560303,726.298950 952.552795,727.975281 
	C951.966919,728.464478 951.775146,729.425537 951.093262,730.882202 
z"/>
<path fill="#EEEEEC" opacity="1.000000" stroke="none" 
	d="
M599.307495,719.008301 
	C598.556213,729.538391 597.804993,740.068481 597.034241,750.871704 
	C593.066895,750.537964 591.940186,748.361633 591.898926,744.586182 
	C591.686035,725.148987 594.690491,706.096802 598.380615,687.112000 
	C598.883240,684.526367 599.372803,681.938171 600.216309,677.535034 
	C590.166992,681.465942 581.223450,684.964233 572.154968,688.511475 
	C570.966736,685.319336 572.082458,683.133667 575.498535,681.846802 
	C582.029236,679.386597 588.568726,676.938354 595.011841,674.261841 
	C598.073669,672.989929 600.922363,671.204773 603.831604,669.671082 
	C606.758484,669.809631 610.213562,670.130127 613.666321,670.107056 
	C623.779175,670.039612 633.965820,669.023193 643.979736,669.943237 
	C651.902466,670.671204 659.681152,674.412659 661.720276,683.122375 
	C663.680298,691.494019 658.357178,697.703918 652.447083,702.889832 
	C642.910400,711.257874 631.126465,714.916687 619.167725,718.091248 
	C617.310852,718.584167 615.437622,719.015137 613.571960,719.474792 
	C613.373596,719.952148 613.175293,720.429504 612.976929,720.906860 
	C629.265747,731.914978 645.554626,742.923096 662.026123,754.054626 
	C660.349243,757.478638 657.847290,755.796448 655.598999,754.602722 
	C636.998840,744.726990 619.659485,732.998352 603.248169,718.699768 
	C601.814514,717.489380 600.906921,716.728271 599.493103,715.542542 
	C599.405334,717.181152 599.356384,718.094727 599.307495,719.008301 
M601.043091,703.645508 
	C600.557739,707.498596 600.072388,711.351746 599.611511,715.010437 
	C602.099915,715.010437 603.865845,715.058289 605.628479,715.003052 
	C622.649780,714.470093 638.115112,709.715454 650.484436,697.497375 
	C654.654480,693.378357 658.412170,688.030762 656.244080,681.946533 
	C653.923462,675.434509 647.197693,674.138306 641.240356,674.201050 
	C630.472290,674.314270 619.713806,675.428650 608.953857,676.162415 
	C606.225891,676.348389 605.153748,677.797119 604.783691,680.635437 
	C603.817688,688.043884 602.392639,695.392517 601.043091,703.645508 
z"/>
<path fill="#E2E1E0" opacity="1.000000" stroke="none" 
	d="
M778.094971,718.072754 
	C778.596985,715.886414 779.060181,713.896667 780.062378,712.231262 
	C780.298279,711.839294 783.013000,712.142456 783.425537,712.826416 
	C784.180664,714.078491 784.702637,716.110962 784.194092,717.358093 
	C782.967041,720.367126 780.670410,720.511658 778.094971,718.072754 
z"/>
<path fill="#E7E5E3" opacity="1.000000" stroke="none" 
	d="
M880.656921,713.358887 
	C880.938965,714.113770 881.282349,714.720276 881.106506,715.048950 
	C880.270081,716.612305 879.479187,718.292664 878.244934,719.491516 
	C877.897217,719.829224 875.296814,718.864868 875.134216,718.169373 
	C874.768738,716.606262 874.687134,714.212463 875.610596,713.331116 
	C876.501282,712.481079 878.799316,713.105652 880.656921,713.358887 
z"/>
<path fill="#262322" opacity="1.000000" stroke="none" 
	d="
M599.691040,719.008301 
	C599.356384,718.094727 599.405334,717.181152 599.493103,715.542542 
	C600.906921,716.728271 601.814514,717.489380 602.932251,718.597656 
	C602.119812,718.965942 601.097168,718.987122 599.691040,719.008301 
z"/>
<path fill="#AACC36" opacity="1.000000" stroke="none" 
	d="
M175.955261,160.393066 
	C175.881790,160.583710 175.696335,160.636841 175.230988,160.615219 
	C175.248505,160.445511 175.545898,160.350525 175.955261,160.393066 
z"/>
<path fill="#272323" opacity="1.000000" stroke="none" 
	d="
M758.034607,514.155518 
	C759.027161,508.996552 759.695435,504.202637 761.053284,499.612640 
	C762.562744,494.509460 766.578064,492.360840 771.767761,492.305267 
	C777.284363,492.246185 781.126343,494.655029 783.135132,499.610504 
	C783.880249,501.448730 784.530945,503.396149 784.786560,505.351074 
	C787.887512,529.067017 787.148438,552.836487 786.158997,574.968506 
	C783.168091,576.586182 780.958984,577.173950 779.664490,578.594849 
	C775.768311,582.871582 772.228271,587.472656 767.958679,592.665588 
	C769.822510,593.903870 771.452393,594.986694 773.574158,596.396301 
	C767.161194,597.596252 763.495972,596.215027 761.603577,590.978699 
	C759.765259,585.891907 758.272522,580.377441 758.168213,575.020752 
	C757.776184,554.890625 758.013184,534.748352 758.034607,514.155518 
z"/>
<path fill="#2E2C2A" opacity="1.000000" stroke="none" 
	d="
M812.778442,771.794434 
	C814.586182,768.681030 816.221497,765.896362 817.856812,763.111755 
	C818.701965,775.015564 819.490479,786.630920 815.247009,797.716248 
	C813.979553,801.027344 812.520081,805.596741 808.094360,804.343201 
	C806.511719,803.894958 805.032593,798.497437 805.621521,795.825195 
	C807.389954,787.801208 810.201477,780.007019 812.778442,771.794434 
z"/>
<path fill="#343231" opacity="1.000000" stroke="none" 
	d="
M717.091553,687.812805 
	C716.380859,702.167053 712.370300,715.214600 705.368225,727.645386 
	C705.669067,723.320923 705.399353,718.860352 706.390991,714.700562 
	C708.385315,706.334290 710.968994,698.100525 713.583313,689.899414 
	C713.930847,688.809204 715.875183,688.228027 717.091553,687.812805 
z"/>
<path fill="#2F2B2A" opacity="1.000000" stroke="none" 
	d="
M806.900269,738.278442 
	C808.700317,733.594971 809.897278,728.996887 812.338928,725.199097 
	C814.672607,721.569397 817.265747,722.378601 818.443298,726.469543 
	C820.000366,731.879089 816.510132,742.143250 811.973145,745.496643 
	C808.978943,747.709778 806.932251,746.873596 806.610413,743.189331 
	C806.481628,741.715393 806.752380,740.206604 806.900269,738.278442 
z"/>
<path fill="#2F2B2B" opacity="1.000000" stroke="none" 
	d="
M702.239197,735.428772 
	C700.150818,738.606445 698.456726,741.776184 695.926880,743.991455 
	C692.961304,746.588257 690.115479,745.133911 689.799866,741.215210 
	C689.306335,735.087036 691.405579,729.740479 695.540283,725.308655 
	C696.523987,724.254150 698.539490,723.342834 699.786865,723.631958 
	C700.669800,723.836731 701.345703,726.122620 701.603333,727.570374 
	C702.037048,730.008484 702.065063,732.518738 702.239197,735.428772 
z"/>
<path fill="#312F31" opacity="1.000000" stroke="none" 
	d="
M756.243652,738.123535 
	C754.240417,738.773010 752.482483,739.106750 750.724487,739.440430 
	C750.409363,737.327026 749.434631,735.046387 749.919067,733.135681 
	C750.871643,729.378357 752.635010,725.826599 754.324768,721.522827 
	C757.726196,727.077332 759.030823,732.169983 756.243652,738.123535 
z"/>
<path fill="#393738" opacity="1.000000" stroke="none" 
	d="
M664.285645,728.514404 
	C665.849609,725.370972 667.285339,722.610657 669.172119,718.983215 
	C671.688660,725.070129 668.807251,733.610107 662.673706,739.286682 
	C663.275696,735.071350 663.716492,731.984375 664.285645,728.514404 
z"/>
<path fill="#3A3A3A" opacity="1.000000" stroke="none" 
	d="
M731.073547,723.223999 
	C729.150818,728.541077 727.248413,733.461670 725.345947,738.382202 
	C724.690857,738.158142 724.035706,737.934021 723.380615,737.709961 
	C723.042969,731.880737 724.390381,726.357910 727.924683,721.531799 
	C729.667664,719.151794 730.930786,720.175293 731.073547,723.223999 
z"/>
<path fill="#2B2928" opacity="1.000000" stroke="none" 
	d="
M960.020996,763.786133 
	C960.463501,763.565125 960.761658,763.599731 960.764587,763.651062 
	C961.467957,776.023438 961.888855,788.366150 956.487732,800.020447 
	C956.418701,800.169373 956.341553,800.342957 956.216370,800.433350 
	C954.226624,801.869507 952.228577,803.294067 950.232300,804.721252 
	C949.411560,802.548340 947.936462,800.393005 947.877747,798.199707 
	C947.534546,785.379883 952.877136,774.427429 960.020996,763.786133 
z"/>
<path fill="#2E2B2B" opacity="1.000000" stroke="none" 
	d="
M951.247986,730.526245 
	C951.775146,729.425537 951.966919,728.464478 952.552795,727.975281 
	C954.560303,726.298950 956.706177,724.788208 958.799194,723.214233 
	C959.780151,726.185242 962.080200,729.480652 961.447266,732.054749 
	C960.372986,736.423523 957.661926,740.473389 955.177307,744.362427 
	C954.401184,745.577148 952.138184,745.841919 950.555786,746.541504 
	C950.016663,745.064575 948.902893,743.527832 949.049316,742.122375 
	C949.442871,738.345703 950.375000,734.625061 951.247986,730.526245 
z"/>
<path fill="#262322" opacity="1.000000" stroke="none" 
	d="
M601.096802,703.205200 
	C602.392639,695.392517 603.817688,688.043884 604.783691,680.635437 
	C605.153748,677.797119 606.225891,676.348389 608.953857,676.162415 
	C619.713806,675.428650 630.472290,674.314270 641.240356,674.201050 
	C647.197693,674.138306 653.923462,675.434509 656.244080,681.946533 
	C658.412170,688.030762 654.654480,693.378357 650.484436,697.497375 
	C638.115112,709.715454 622.649780,714.470093 605.628479,715.003052 
	C603.865845,715.058289 602.099915,715.010437 599.611511,715.010437 
	C600.072388,711.351746 600.557739,707.498596 601.096802,703.205200 
z"/>
</svg>
